<?xml version="1.0" encoding="utf-8"?>
<!-- Generator: Adobe Illustrator 19.0.0, SVG Export Plug-In . SVG Version: 6.00 Build 0)  -->
<svg version="1.1" xmlns="http://www.w3.org/2000/svg" xmlns:xlink="http://www.w3.org/1999/xlink" x="0px" y="0px"
	 viewBox="0 0 566.9 566.9" style="enable-background:new 0 0 566.9 566.9;" xml:space="preserve">
<style type="text/css">
	.st0{display:none;}
	.st1{display:inline;}
	.st2{fill:#A97C50;}
	.st3{fill:#C49A6C;}
	.st4{fill:#19191A;}
	.st5{fill:#8B6C9C;}
	.st6{fill:#6A5676;}
	.st7{fill:#303030;}
	.st8{fill:#78538A;}
	.st9{fill:#FED440;}
	.st10{fill:#5F3A19;}
	.st11{fill:#EEC19D;}
	.st12{fill:#F1D1B5;}
	.st13{fill:#E6E7E8;}
	.st14{fill:#CBA786;}
	.st15{fill:#191420;}
	.st16{fill:#C2272F;}
	.st17{fill:#CB574A;}
	.st18{fill:#FFFFFF;}
	.st19{fill:#4C4A49;}
	.st20{fill:#534C5A;}
	.st21{fill:#EDC09F;}
	.st22{fill:#3E3B40;}
	.st23{fill:#F2F2F2;}
	.st24{fill:#EF4136;}
	.st25{fill:#EEEFEF;}
	.st26{fill:#EBEBEC;}
	.st27{fill:#F26C55;}
	.st28{fill:#00A79D;}
	.st29{fill:#57B4AD;}
	.st30{fill:#A3CF62;}
	.st31{fill:#8DC63F;}
	.st32{fill:#B8BABC;}
	.st33{fill:#C9CACC;}
</style>
<g id="student" class="st0">
	<g id="XMLID_670_" class="st1">
		<g id="XMLID_40_">
			<path id="XMLID_126_" class="st2" d="M434.3,180.5l1.2-7.5l0-0.1l106.7,62c0,0,0,0,0,0c2.8,15.2,4.2,30.9,4.2,47
				c0,75.4-31.7,143.5-82.5,191.5l-5.2-37.5l-127-45.6l3.5-39.9v0l0.8-1.1c0,0,3.9-3.6,6.3-17.9c1.9-11.3,2.1-12.9,2.1-13.2
				c0.2,0,2.2,0.3,7.3,0c5.4-0.3,7.6-6,7.6-6c3.3-4.1,7.4-38.4,7.4-38.4c-1.3-4.8-7.3-4.8-7.3-4.8l0-0.2l0.6-1.2l5,0.7l0.2-10.7
				l2.2-4.3l-0.7-3.9c0.4-0.2,0.9-0.4,1.3-0.7l0.3,0.6c0,0,0.1-0.3,0.2-0.8v0c9.9-5.2,16-10.6,16.5-14.2l0.5-39.1l-0.3-1.5l46-10.2
				C432.9,183.3,434,182,434.3,180.5L434.3,180.5z"/>
			<path id="XMLID_125_" class="st3" d="M542.2,234.9l-106.7-62c0.3-1.5-0.3-3.3-1.9-4.2l-57.9-32.3l-58.5-32.7
				c-5.3-3-6-3.1-11.6-1.7l-128.6,28.7c-1.7,0.4-2.8,1.8-3,3.3v0l-1.3,7.6l0,0.1c-0.2,1.5,0.4,3.1,1.9,4l42.3,23.9l-0.4,0.7
				l-6.8,24.1c-1,1.2-1.9,2.3-2.4,3.1l1.8-0.7l-3.1,11.1c-0.2,1.3,0.2,3,1.2,5c-2,4.3-4,9-5.7,14c0,0-2.8,14.2,0,25.6l2.3-2.6
				l0.8,20.9l0.5,1.3c0,0-6,0-7.3,4.8c0,0,5.8,32.3,9.1,36.4c0,0,2.1,5.7,7.6,6c5.4,0.3,6.4,0.1,6.4,0.1c0.3,1.7,0.6,3.8,1.1,6.4
				c2.4,14.3,6.3,17.9,6.3,17.9l2.5,3.7v0l3.8,43l-127,45.6l-5.2,37.4c-50.8-48-82.5-116-82.5-191.5C19.5,136.4,137.5,18.5,283,18.5
				C412.4,18.5,520.1,111.9,542.2,234.9z"/>
			<path id="XMLID_123_" class="st4" d="M458.7,435.9l5.2,37.5c-24.2,22.9-52.8,41.2-84.3,53.7l15.3-26.1l-40-38.7l42.1-17.8
				l-65.3-54.1L458.7,435.9z"/>
			<path id="XMLID_122_" class="st5" d="M433.6,168.7c1.7,0.9,2.3,2.6,1.9,4.2l0,0.1c-0.3,1.4-1.3,2.6-3,3l-0.7,0.2l-66.7-37.2
				l10.6-2.5l0,0L433.6,168.7z"/>
			<path id="XMLID_121_" class="st6" d="M435.5,173l-1.2,7.5h0c0.2-1.5-0.4-3.1-2-4l-0.5-0.3l0.7-0.2
				C434.1,175.6,435.2,174.4,435.5,173z"/>
			<path id="XMLID_120_" class="st6" d="M432.3,176.4c1.6,0.9,2.2,2.5,2,4c-0.2,1.5-1.3,2.8-3.1,3.2l-46,10.2l-12.3,2.7l1.1-7.8l0,0
				l57.7-12.7L432.3,176.4z"/>
			<path id="XMLID_119_" class="st5" d="M431.8,176.1L374,188.8l0-0.1l-61.6-33.5c0-0.1,0-0.2,0.1-0.3c0.2-1.1-0.4-2.1-1.5-3
				l54.1-12.9h0L431.8,176.1z"/>
			<path id="XMLID_118_" class="st7" d="M397,444.4l-42.1,17.8l40,38.7l-15.3,26.1h0c-19.7,7.8-40.6,13.3-62.4,16.1l12-127l0-0.1
				l2.4-25.7L397,444.4z"/>
			<path id="XMLID_117_" class="st6" d="M385.2,193.9l0.3,1.5l-0.5,39.1c-0.5,3.5-6.6,9-16.5,14.2c0.2-0.8,0.4-2.1,0.5-3.7
				c1.1-1.1,1.8-2.6,2.1-4.2c0.4-2.6-0.6-5.1-2.4-6.7c-0.2-1.1-0.5-2.3-0.8-3.5c0,0,0,0,0,0v0l5-33.9L385.2,193.9z"/>
			<path id="XMLID_115_" class="st8" d="M375.7,136.4L375.7,136.4l-10.6,2.5h0l-53.4-29.8c-0.9-0.4-1.8-0.6-2.8-0.4l-132.5,29.5h0
				l-0.5-0.3c-1.5-0.9-2.1-2.4-1.9-3.9v0c0.2-1.5,1.3-2.9,3-3.3L305.5,102c5.7-1.4,6.4-1.3,11.6,1.7L375.7,136.4z"/>
			<path id="XMLID_114_" class="st9" d="M374.1,188.7l0,0.1l0,0l-6.2,1.4l0-0.1L351,181c-1.9-2-3.2-3.1-3.2-3.1s-6.3-5.1-13.9-6.2
				l-25.6-13.8c2.2-0.4,3.8-1.4,4.2-2.7L374.1,188.7z"/>
			<polygon id="XMLID_113_" class="st9" points="374,188.8 372.9,196.6 366.6,198 367.8,190.2 			"/>
			<path id="XMLID_112_" class="st9" d="M372.9,196.6l-5,33.9c-2.1-6.8-3.6-10.8-4.2-12.4l0-0.2l4,6.4c0,0,0.3-7.8-2.4-17.5l1.3-8.7
				L372.9,196.6z"/>
			<path id="XMLID_111_" class="st9" d="M368.7,234c1.8,1.6,2.8,4.1,2.4,6.7c-0.2,1.7-1,3.1-2.1,4.2
				C369.4,242.1,369.5,238.1,368.7,234z"/>
			<path id="XMLID_110_" class="st9" d="M367.5,233.1c0.4,0.3,0.9,0.6,1.2,0.9c0.7,4.1,0.6,8.1,0.3,10.9c-0.6,0.6-1.3,1.1-2.1,1.5
				l-1.2-2.6l0.5,2.9c-0.3,0.1-0.6,0.2-0.9,0.3c-0.9,0.2-1.9,0.3-2.9,0.1c-1.1-0.2-2.1-0.5-2.9-1.1c-2.5-1.5-3.9-4.5-3.5-7.6
				c0.4-3.1,2.7-5.5,5.5-6.2c1-0.3,2.1-0.4,3.1-0.2C365.7,232.3,366.7,232.6,367.5,233.1z"/>
			<path id="XMLID_109_" class="st6" d="M369,245c-0.2,1.6-0.4,2.9-0.5,3.7v0c-0.2,0.1-0.3,0.2-0.5,0.2l-1.1-2.4
				C367.7,246.1,368.4,245.6,369,245z"/>
			<path id="XMLID_108_" class="st10" d="M368,248.9c0.2-0.1,0.3-0.2,0.5-0.2c-0.1,0.5-0.2,0.8-0.2,0.8L368,248.9z"/>
			<path id="XMLID_107_" class="st6" d="M367.9,230.6c0.4,1.2,0.6,2.3,0.8,3.5c-0.4-0.4-0.8-0.7-1.2-0.9L367.9,230.6
				C367.9,230.5,367.9,230.5,367.9,230.6z"/>
			<path id="XMLID_106_" class="st6" d="M366.9,246.5l1.1,2.4c-0.4,0.2-0.9,0.4-1.3,0.7l-0.5-2.8
				C366.4,246.7,366.7,246.6,366.9,246.5z"/>
			<path id="XMLID_105_" class="st9" d="M367.9,230.5L367.9,230.5l-0.4,2.6c-0.8-0.5-1.8-0.9-2.8-1c-1.1-0.2-2.2-0.1-3.1,0.2v0
				l2.1-14.2C364.3,219.7,365.8,223.7,367.9,230.5z"/>
			<path id="XMLID_104_" class="st5" d="M367.8,190.1l0,0.1l-8.6,1.9c-3-5.1-6-8.8-8.2-11.1L367.8,190.1z"/>
			<path id="XMLID_103_" class="st6" d="M367.8,190.2l-1.2,7.8l-4,0.9c-0.2-0.4-0.3-0.7-0.5-1.1c-0.9-2.1-2-4-3-5.7L367.8,190.2z"/>
			<path id="XMLID_102_" class="st9" d="M365.4,206.7c2.7,9.7,2.4,17.5,2.4,17.5l-4-6.4L365.4,206.7z"/>
			<path id="XMLID_101_" class="st10" d="M366.7,249.6l0.7,3.9l-2.2,4.3l0.1-7.5v0C365.8,250.1,366.2,249.8,366.7,249.6z"/>
			<path id="XMLID_100_" class="st9" d="M365.7,243.8l1.2,2.6c-0.2,0.1-0.5,0.2-0.7,0.3L365.7,243.8z"/>
			<path id="XMLID_99_" class="st6" d="M366.2,246.8l0.5,2.8c-0.5,0.2-0.9,0.5-1.4,0.7l0-3.2l0,0C365.6,247,365.9,246.9,366.2,246.8
				z"/>
			<path id="XMLID_98_" class="st6" d="M366.6,198l-1.3,8.7c-0.7-2.5-1.6-5.2-2.7-7.8L366.6,198z"/>
			<path id="XMLID_97_" class="st6" d="M365.4,206.7l-1.6,11.1l-0.4-0.6c0,0,0.1,0.3,0.3,0.9l-2.1,14.2v0c-2.8,0.8-5.1,3.1-5.5,6.2
				c-0.5,3.1,1,6,3.5,7.6l0,0l-2,7.6c-3.5,1.4-7.3,2.7-11.3,3.9l-4.6-17l-5.6,9l1.8-14.6l-28.9,3.8l19.9-14.2L270.4,239l15.7-11.4
				c-10.4,2-33.9,11-46.7,16.1c-3.2-2-6.2-4-9-6.1l14.4-52.2l0,0l44.6,25.2c5,3,5.7,3.3,11.6,2l61.7-13.7
				C363.8,201.5,364.7,204.2,365.4,206.7z"/>
			<path id="XMLID_96_" class="st9" d="M365.3,247L365.3,247l-0.1,3.3v0c-2.4,1.2-5,2.3-7.8,3.4l2-7.6l0,0c0.9,0.6,1.9,0.9,2.9,1.1
				C363.5,247.3,364.4,247.3,365.3,247z"/>
			<path id="XMLID_95_" class="st9" d="M365.3,250.3l-0.1,7.5l-5.1,9.9l-6-0.9l3.5-13.1C360.3,252.6,362.9,251.5,365.3,250.3z"/>
			<polygon id="XMLID_94_" class="st9" points="360,267.7 365.2,257.8 365,268.5 			"/>
			<path id="XMLID_93_" class="st8" d="M311.6,109.1l53.4,29.8L311,151.9c-1.3-1.1-3.5-2-5.9-2.4c-4.5-0.7-8.4,0.7-8.7,3
				c-0.1,0.9,0.3,1.8,1,2.6l-11.8,2.7c-7.2-0.9-15.5-0.6-24.8,1.7c0,0-8.8,2.2-20.3,8.7l-7.9,1.8l-56.2-31.8l132.5-29.5
				C309.8,108.5,310.8,108.6,311.6,109.1z"/>
			<path id="XMLID_92_" class="st11" d="M366.6,273.9c0,0-4.1,34.3-7.4,38.4c0,0-2.1,5.7-7.6,6c-5.1,0.3-7.1,0-7.3,0v0c0,0,0,0,0,0
				l1.9-8l13.1-41.1C359.4,269.1,365.4,269.1,366.6,273.9z"/>
			<path id="XMLID_91_" class="st6" d="M363.7,217.8l0,0.2c-0.2-0.6-0.3-0.9-0.3-0.9L363.7,217.8z"/>
			<path id="XMLID_90_" class="st6" d="M362.6,198.9l-61.7,13.7c-5.9,1.3-6.6,1-11.6-2l-44.6-25.2l-13.4-7.6l0.6-4.3
				c1-0.7,2.1-1.4,3.1-2l55.4,31.4c5,3,5.7,3.1,11.6,1.8l57.1-12.5c1,1.7,2,3.6,3,5.7C362.3,198.2,362.4,198.5,362.6,198.9z"/>
			<path id="XMLID_89_" class="st10" d="M360,267.7l-0.6,1.2l0,0.2l-13.1,41.1v-52.6c4-1.2,7.8-2.5,11.3-3.9l-3.5,13.1L360,267.7z"
				/>
			<path id="XMLID_88_" class="st5" d="M359.2,192.1l-57.1,12.5c-5.9,1.3-6.7,1.2-11.6-1.8l-55.4-31.4c1.8-1.2,3.7-2.3,5.4-3.3
				l45.2-10.4c21.1,2.5,32.5,14.9,32.5,14.9s4.8-1.4,13.4-1.2c0.8,0,1.6,0.1,2.3,0.2L351,181C353.2,183.3,356.2,187,359.2,192.1z"/>
			<path id="XMLID_87_" class="st9" d="M351,181l-17.1-9.2c7.6,1.1,13.9,6.2,13.9,6.2S349.1,178.9,351,181z"/>
			<path id="XMLID_82_" class="st12" d="M219.5,312.6L219.5,312.6c0,0,0.3-58.9,11.1-65.3c0,0,3.5-1.4,8.7-3.5
				c13.4,8.3,30.2,15.5,49.2,18.3c21,3.1,41.2,0.4,57.7-4.5v52.6l-1.9,8l0,0c0,0,0,0,0,0c0,0.2-0.2,1.9-2.1,13.2
				c-2.4,14.3-6.3,17.9-6.3,17.9l-0.8,1.1v0l-13.1,19c0,0-1.1,1.4-2.7,3.5c-3.1,3.9-8.1,10-11.4,12.9c-5,4.4-10.3,5.6-10.3,5.6
				c-7.9,3.5-27.5,0-27.5,0c-4.4-1.5-12.6-9-15-11.3c-0.4-0.4-0.7-0.7-0.7-0.7c-4.3-4.2-10.2-12.2-12.1-14.8
				c-0.4-0.5-0.6-0.8-0.6-0.8l-11.3-16.5v0l-2.5-3.7c0,0-3.9-3.6-6.3-17.9c-0.4-2.6-0.8-4.8-1.1-6.4L219.5,312.6z M327.7,273.1
				l10,3.6c0,0-2.8-4.1-7.1-7.8c0,0-3.9-3.5-8.6-3c0,0-7.4,0.3-12,1.7c0,0-6.1,1.1-7.6,1.9c0,0-10.3,5.4,0,5.7c0,0,7.1-0.4,15.2-1.5
				C325.6,272.6,327.7,273.1,327.7,273.1z M268.7,274.5c10.3-0.3,0-5.7,0-5.7c-1.5-0.9-7.6-1.9-7.6-1.9c-4.6-1.5-12-1.7-12-1.7
				c-4.7-0.5-8.6,3-8.6,3c-4.3,3.7-7.1,7.8-7.1,7.8l10-3.6c0,0,2-0.5,10.2,0.7C261.6,274.1,268.7,274.5,268.7,274.5z"/>
			<path id="XMLID_81_" class="st6" d="M341.6,240.6l4.6,17c-16.5,4.9-36.7,7.6-57.7,4.5c-19-2.8-35.8-10-49.2-18.3
				c12.8-5.1,36.3-14.1,46.7-16.1L270.4,239l58.3-14.4l-19.9,14.2l28.9-3.8l-1.8,14.6L341.6,240.6z"/>
			<path id="XMLID_80_" class="st3" d="M344.4,318.2C344.4,318.2,344.4,318.2,344.4,318.2L344.4,318.2L344.4,318.2z"/>
			<path id="XMLID_79_" class="st3" d="M344.4,318.2L344.4,318.2C344.4,318.2,344.4,318.2,344.4,318.2L344.4,318.2z"/>
			<path id="XMLID_78_" class="st10" d="M337.6,276.7l-10-3.6c0,0-2-0.5-10.2,0.7c-8.1,1.2-15.2,1.5-15.2,1.5c-10.3-0.3,0-5.7,0-5.7
				c1.5-0.9,7.6-1.9,7.6-1.9c4.6-1.5,12-1.7,12-1.7c4.7-0.5,8.6,3,8.6,3C334.9,272.6,337.6,276.7,337.6,276.7z"/>
			<path id="XMLID_77_" class="st11" d="M322.1,369.5l13.1-19l-3.5,39.9l-48.7,39.7l-48.7-39.7l-3.8-43l11.3,16.5
				c0,0,0.2,0.3,0.6,0.8c0.4,0.8,6.3,13.9,11.2,19.7c0,0,9.4,15,16.4,20.7c0,0,12.8,10.7,28,0c0,0,5.8-6.1,8.8-11
				c3-4.9,10-14.2,12.7-21l0,0C321,370.9,322.1,369.5,322.1,369.5z"/>
			<path id="XMLID_76_" class="st5" d="M308.3,157.9l25.6,13.8c-0.8-0.1-1.5-0.2-2.3-0.2c-8.7-0.3-13.4,1.2-13.4,1.2
				s-11.4-12.4-32.5-14.9l11.8-2.7c1.3,1.3,3.6,2.4,6.4,2.8C305.4,158.2,307,158.1,308.3,157.9z"/>
			<path id="XMLID_75_" class="st13" d="M331.7,390.4l-2.4,25.7l0,0.1l-8.9,51.2l-16.3-16.2l-21.1-21v115.2c0,0,0,0,0,0V430.1
				L331.7,390.4z"/>
			<path id="XMLID_74_" class="st13" d="M320.3,467.4l8.9-51.2l-12,127c-5,0.7-10,1.2-15,1.5l-11.6-77.3l13.4-16.2L320.3,467.4z"/>
			<path id="XMLID_73_" class="st14" d="M319.4,373L319.4,373c-2.7,6.9-9.7,16.1-12.6,21c-3,4.9-8.8,11-8.8,11c-15.2,10.7-28,0-28,0
				c-7-5.7-16.4-20.7-16.4-20.7c-4.9-5.7-10.8-18.9-11.2-19.7c1.9,2.6,7.9,10.6,12.1,14.8c0,0,0.3,0.2,0.7,0.7
				c2.5,2.3,10.7,9.8,15,11.3c0,0,19.6,3.5,27.5,0c0,0,5.3-1.2,10.3-5.6C311.3,383,316.3,376.9,319.4,373z"/>
			<path id="XMLID_71_" class="st15" d="M311,151.9c1.1,0.9,1.7,2,1.5,3c0,0.1,0,0.2-0.1,0.3l-4.7-2.6L311,151.9z"/>
			<path id="XMLID_70_" class="st9" d="M307.8,152.6l4.7,2.6c-0.4,1.3-2,2.3-4.2,2.7l-6.1-3.3l3-1.3L307.8,152.6L307.8,152.6z"/>
			<path id="XMLID_69_" class="st15" d="M311,151.9l-3.3,0.8h0l-0.5-0.3l-2.1,0.9l-1.4,0.3l-6.3,1.5c-0.8-0.8-1.2-1.7-1-2.6
				c0.3-2.4,4.2-3.7,8.7-3C307.6,149.9,309.7,150.8,311,151.9z"/>
			<path id="XMLID_68_" class="st15" d="M302.2,154.6l6.1,3.3c-1.3,0.2-2.9,0.2-4.5,0c-2.8-0.4-5.1-1.5-6.4-2.8l6.3-1.5l1.4-0.3
				L302.2,154.6z"/>
			<polygon id="XMLID_67_" class="st9" points="307.7,152.6 305.1,153.3 307.2,152.4 			"/>
			<path id="XMLID_66_" class="st16" d="M283,430.1l21.1,21l-13.4,16.2l11.6,77.3c-6.3,0.5-12.8,0.7-19.2,0.7V430.1z"/>
			<path id="XMLID_64_" class="st8" d="M285.6,157.8l-45.2,10.4c11.5-6.5,20.3-8.7,20.3-8.7C270.2,157.2,278.5,157,285.6,157.8z"/>
			<path id="XMLID_62_" class="st17" d="M282.9,430.1v115.2c-6.5,0-12.9-0.2-19.2-0.7l11.6-77.2l-13.4-16.2L282.9,430.1z"/>
			<polygon id="XMLID_61_" class="st18" points="282.9,430.1 261.9,451.2 245.6,467.4 236.7,416.1 236.7,416.1 234.2,390.4 			"/>
			<path id="XMLID_60_" class="st18" d="M261.9,451.2l13.4,16.2l-11.6,77.2c-5-0.3-10-0.9-15-1.5l-12-127h0l8.9,51.3L261.9,451.2z"
				/>
			<path id="XMLID_59_" class="st10" d="M268.7,268.8c0,0,10.3,5.4,0,5.7c0,0-7.1-0.4-15.2-1.5c-8.1-1.2-10.2-0.7-10.2-0.7l-10,3.6
				c0,0,2.8-4.1,7.1-7.8c0,0,3.9-3.5,8.6-3c0,0,7.3,0.3,12,1.7C261,266.9,267.1,267.9,268.7,268.8z"/>
			<path id="XMLID_56_" class="st19" d="M236.7,416.1l12,127c-21.7-2.8-42.6-8.3-62.4-16.1L171,501l40-38.7l-42.1-17.8l65.3-54.1
				L236.7,416.1z"/>
			<path id="XMLID_55_" class="st20" d="M244.8,185.4L244.8,185.4l-14.4,52.3c-12.2-9-20.5-18.5-23.4-24.8c5.7-11.9,11.6-20,11.6-20
				l-9.6,3.9l0.7-2.4c3.7-4.3,9.4-10.1,9.4-10.1c3.1-3.1,6.3-5.7,9.4-8.1l2.9,1.7L244.8,185.4z"/>
			<path id="XMLID_54_" class="st5" d="M232.5,170.1l7.9-1.8c-1.7,1-3.5,2.1-5.4,3.3L232.5,170.1z"/>
			<path id="XMLID_53_" class="st6" d="M232.5,170.1l2.5,1.4c-1,0.7-2,1.3-3.1,2L232.5,170.1z"/>
			<path id="XMLID_52_" class="st4" d="M234.2,390.4l-65.3,54.1l42.1,17.8L171,501l15.3,26.1c-31.5-12.4-60.1-30.8-84.3-53.7
				l5.2-37.4L234.2,390.4z"/>
			<path id="XMLID_51_" class="st20" d="M216.7,169.6l-42.3-23.9c-1.5-0.9-2.1-2.5-1.9-4l0-0.1c0.2-1.5,1.3-2.8,3-3.2l0.8-0.2h0
				l56.2,31.8l-0.5,3.5c-1.2,0.8-2.4,1.7-3.6,2.6L216.7,169.6z"/>
			<path id="XMLID_50_" class="st20" d="M232,173.6l-0.6,4.3l-2.9-1.7C229.6,175.3,230.8,174.4,232,173.6z"/>
			<path id="XMLID_49_" class="st10" d="M230.3,237.6c2.8,2.1,5.8,4.1,9,6.1c-5.3,2.1-8.7,3.5-8.7,3.5
				c-10.8,6.5-11.1,65.3-11.1,65.3l-14.7-40.5l-0.5-1.3l-0.8-20.9l-2.3,2.6c-2.8-11.4,0-25.6,0-25.6c1.7-5,3.7-9.8,5.7-14
				C209.9,219.2,218.1,228.6,230.3,237.6z"/>
			<path id="XMLID_48_" class="st20" d="M216.7,169.6l11.7,6.6c-3.1,2.4-6.3,5.1-9.4,8.1c0,0-5.7,5.7-9.4,10.1l6.8-24.1L216.7,169.6
				z"/>
			<path id="XMLID_47_" class="st21" d="M219.5,312.6l1.1,6.7C219.6,313.5,219.5,312.7,219.5,312.6z"/>
			<path id="XMLID_46_" class="st12" d="M220.6,319.3c0,0-1,0.2-6.4-0.1c-5.4-0.3-7.6-6-7.6-6c-3.3-4.1-9.1-36.4-9.1-36.4
				c1.3-4.8,7.3-4.8,7.3-4.8l14.7,40.5v0C219.5,312.7,219.6,313.5,220.6,319.3z"/>
			<path id="XMLID_45_" class="st20" d="M208.9,196.7l9.6-3.9c0,0-5.9,8.1-11.6,20c-1-2-1.4-3.7-1.2-5L208.9,196.7z"/>
			<path id="XMLID_44_" class="st10" d="M209.6,194.4l-0.7,2.4l-1.8,0.7C207.7,196.6,208.6,195.5,209.6,194.4z"/>
			<path id="XMLID_42_" class="st22" d="M175.8,138l0.5,0.3l-0.8,0.2c-1.7,0.4-2.7,1.7-3,3.2l1.3-7.6
				C173.7,135.5,174.3,137.1,175.8,138z"/>
		</g>
		<g id="XMLID_41_">
		</g>
	</g>
</g>
<g id="admin_man" class="st0">
	<g id="XMLID_1_" class="st1">
		<g id="XMLID_4_">
			<path id="XMLID_150_" class="st23" d="M245.6,556.8l-14.3-150.5h0l10.5,60.7l19.2-19.2l15.8,19.2l-13.8,92
				C257.3,558.4,251.4,557.7,245.6,556.8z"/>
			<path id="XMLID_149_" class="st13" d="M340.8,406.4l-14.2,150.4c-5.8,0.9-11.7,1.6-17.6,2.1l-13.8-92l15.9-19.2l19.2,19.2
				L340.8,406.4z"/>
			<path id="XMLID_148_" class="st17" d="M286,422.9v137c-7.7,0-15.3-0.3-22.8-1l13.8-92l-15.8-19.2L286,422.9z"/>
			<path id="XMLID_147_" class="st18" d="M263.2,558.9l-0.6,3.9h-16.5l-0.6-6C251.4,557.7,257.3,558.4,263.2,558.9z"/>
			<path id="XMLID_129_" class="st19" d="M231.3,406.3l14.3,150.5c-27.2-4.2-53-12.6-76.9-24.5l-15.1-25.7l47.3-45.8l-49.7-21.1
				l77.2-64L231.3,406.3z"/>
			<path id="XMLID_128_" class="st10" d="M350.7,241.4l-11.8-4.2c0,0-2.4-0.6-12,0.8s-18,1.8-18,1.8c-12.1-0.3,0-6.7,0-6.7
				c1.8-1,9-2.3,9-2.3c5.5-1.7,14.2-2.1,14.2-2.1c5.6-0.6,10.2,3.5,10.2,3.5C347.4,236.6,350.7,241.4,350.7,241.4z"/>
			<path id="XMLID_127_" class="st3" d="M358.7,290.6L358.7,290.6C358.7,290.6,358.7,290.6,358.7,290.6
				C358.7,290.6,358.7,290.6,358.7,290.6z"/>
			<path id="XMLID_124_" class="st16" d="M286.1,422.9l24.9,24.9L295.1,467l13.8,92c-7.5,0.7-15.1,1-22.8,1V422.9z"/>
			<path id="XMLID_116_" class="st12" d="M211,283.9L211,283.9c0,0.1,0.1,1.2,1.3,8c0,0-1.2,0.3-7.6-0.1c-6.4-0.3-8.9-7.1-8.9-7.1
				c-3.9-4.8-10.8-43-10.8-43c1.5-5.7,8.6-5.7,8.6-5.7L211,283.9z"/>
			<path id="XMLID_72_" class="st21" d="M252.5,363C252.5,363,252.5,363.1,252.5,363C252.5,363.1,252.5,363.1,252.5,363z"/>
			<path id="XMLID_65_" class="st4" d="M493.8,429.8l3.5,25c-25.1,32.6-57.2,59.3-93.9,77.6l15.1-25.7l-47.3-45.8l49.8-21.1
				l-77.2-64L493.8,429.8z"/>
			<path id="XMLID_63_" class="st11" d="M385,238.1c0,0-4.8,40.6-8.7,45.4c0,0-2.5,6.8-8.9,7.1c-6,0.3-8.4,0-8.7,0v0c0,0,0,0,0,0
				l2.2-9.4l15.5-48.7C376.4,232.5,383.5,232.5,385,238.1z"/>
			<path id="XMLID_58_" class="st21" d="M211,283.9l1.3,8C211.1,285,211,284,211,283.9z"/>
			<path id="XMLID_57_" class="st24" d="M381.1,171.1l5.2,8.3c0,0,0.6-15.6-6.6-31.3c-2.8-6.1-6-11.1-8.9-14.8l179.7,201.4
				c-8.1,44.7-26.7,85.7-53.2,120l-3.5-25l-150.2-53.9l4.1-47.2v0l0.9-1.3c0,0,4.6-4.2,7.4-21.2c2.2-13.3,2.5-15.3,2.5-15.6
				c0.3,0,2.7,0.3,8.7,0c6.4-0.3,8.9-7.1,8.9-7.1c3.9-4.8,8.7-45.4,8.7-45.4c-1.5-5.7-8.6-5.7-8.6-5.7l0.1-0.2l9.4-18.3l-2.1-11.4
				l3.1,6.7c0,0,2.9-11.5-0.5-22.4C383.2,176,381.1,171.1,381.1,171.1z"/>
			<path id="XMLID_43_" class="st4" d="M228.4,375.9l-77.2,64l49.7,21.1l-47.3,45.8l15.1,25.7c-36.8-18.3-68.9-45-93.9-77.7
				l3.5-24.9L228.4,375.9z"/>
			<path id="XMLID_19_" class="st14" d="M303.5,377.1c0,0,6.3-1.4,12.2-6.6c3.9-3.4,9.8-10.6,13.4-15.3l0,0
				c-3.2,8.1-11.5,19.1-15,24.9c-3.5,5.8-10.4,13-10.4,13c-18,12.7-33.1,0-33.1,0c-8.2-6.7-19.4-24.4-19.4-24.4
				c-5.8-6.8-12.8-22.3-13.2-23.3c2.2,3.1,9.3,12.5,14.3,17.5c0,0,0,0,0.1,0.1c0,0,0,0,0,0c0.2,0.2,0.6,0.6,1.2,1.1
				c3.4,3.1,12.4,11.2,17.3,12.9C271,377.1,294.2,381.2,303.5,377.1z"/>
			<polygon id="XMLID_17_" class="st25" points="286,422.9 261.1,447.8 241.9,467 231.3,406.3 231.3,406.3 228.4,375.9 			"/>
			<path id="XMLID_13_" class="st12" d="M238.1,345.4c-0.5-0.6-0.7-1-0.7-1L223.9,325v0l-3-4.3c0,0-4.6-4.2-7.4-21.2
				c-0.5-3.1-0.9-5.6-1.3-7.6l-1.3-8v0c0,0,0.3-69.6,13.1-77.2c0,0,48.2-19.8,65.6-23.2l-18.6,13.4l69-17.1l-23.5,16.8l34.2-4.5
				l-2.1,17.3l6.7-10.7l5.5,20.1v62.3l-2.2,9.4l0,0c0,0,0,0,0,0c0,0.3-0.3,2.3-2.5,15.6c-2.8,17-7.4,21.2-7.4,21.2l-0.9,1.3v0
				l-15.5,22.5c0,0-1.3,1.7-3.2,4.1c-3.6,4.6-9.5,11.9-13.4,15.3c-6,5.2-12.2,6.6-12.2,6.6c-9.3,4.1-32.5,0-32.5,0
				c-4.9-1.7-13.9-9.8-17.3-12.9c-0.6-0.5-1-0.9-1.2-1.1c0,0,0,0,0,0c-0.1-0.1-0.1-0.1-0.1-0.1C247.4,358,240.3,348.5,238.1,345.4z
				 M338.9,237.2l11.8,4.2c0,0-3.3-4.8-8.4-9.2c0,0-4.6-4.1-10.2-3.5c0,0-8.7,0.3-14.2,2.1c0,0-7.2,1.2-9,2.3c0,0-12.1,6.4,0,6.7
				c0,0,8.4-0.5,18-1.8S338.9,237.2,338.9,237.2z M269.1,238.9c12.1-0.3,0-6.8,0-6.8c-1.8-1-9-2.3-9-2.3c-5.5-1.7-14.2-2.1-14.2-2.1
				c-5.6-0.6-10.2,3.5-10.2,3.5c-5.1,4.4-8.4,9.2-8.4,9.2l11.8-4.2c0,0,2.4-0.6,12,0.8S269.1,238.9,269.1,238.9z"/>
			<path id="XMLID_12_" class="st3" d="M358.7,290.5C358.7,290.5,358.7,290.5,358.7,290.5C358.7,290.6,358.7,290.6,358.7,290.5
				L358.7,290.5z"/>
			<path id="XMLID_11_" class="st11" d="M332.3,351.2l15.5-22.5l-4.1,47.2l-57.6,47l-57.6-47l-4.5-50.9l13.4,19.5c0,0,0.3,0.3,0.7,1
				c0.4,1,7.5,16.5,13.2,23.3c0,0,11.2,17.7,19.4,24.4c0,0,15.1,12.7,33.1,0c0,0,6.9-7.2,10.4-13c3.5-5.8,11.8-16.8,15-24.9l0,0
				C331.1,352.9,332.3,351.2,332.3,351.2z"/>
			<path id="XMLID_10_" class="st10" d="M386.3,179.4l-5.2-8.3c0,0,2.1,4.9,5.4,15.8c3.4,10.9,0.5,22.4,0.5,22.4l-3.1-6.7l2.1,11.4
				l-9.4,18.3l-0.1,0.2l-15.5,48.7v-62.3l-5.5-20.1l-6.7,10.7l2.1-17.3l-34.2,4.5l23.5-16.8l-69,17.1l18.6-13.4
				c-17.4,3.4-65.6,23.2-65.6,23.2c-12.8,7.6-13.1,77.2-13.1,77.2L193.6,236l-0.6-1.6l-0.9-24.7l-2.7,3.1c-3.4-13.4,0-30.2,0-30.2
				c7.6-22.6,20.5-40.3,20.5-40.3l-13.4,5.5c3.1-4.6,14-15.6,14-15.6c23.5-22.9,49.4-29.3,49.4-29.3c43.6-10.7,67.8,15.6,67.8,15.6
				s5.6-1.7,15.9-1.4c10.2,0.3,19.2,7.5,19.2,7.5s3.6,2.9,8.1,8.7c2.8,3.7,6,8.7,8.9,14.8C386.9,163.8,386.3,179.4,386.3,179.4z"/>
			<path id="XMLID_9_" class="st10" d="M269.1,232.1c0,0,12.1,6.4,0,6.8c0,0-8.4-0.5-18-1.8s-12-0.8-12-0.8l-11.8,4.2
				c0,0,3.3-4.8,8.4-9.2c0,0,4.6-4.1,10.2-3.5c0,0,8.7,0.3,14.2,2.1C260.1,229.8,267.3,231.1,269.1,232.1z"/>
			<path id="XMLID_8_" class="st26" d="M286,422.9l57.6-47l-2.9,30.4l0,0.1L330.2,467L311,447.8L286,422.9l0,137c0,0,0,0,0,0V422.9z
				"/>
			<path id="XMLID_7_" class="st27" d="M370.8,133.3c-4.5-5.8-8.1-8.7-8.1-8.7s-9-7.3-19.2-7.5c-10.2-0.3-15.9,1.4-15.9,1.4
				s-24.1-26.3-67.8-15.6c0,0-26,6.4-49.4,29.3c0,0-11,11-14,15.6l13.4-5.5c0,0-12.8,17.7-20.5,40.3c0,0-3.4,16.8,0,30.2l2.7-3.1
				l0.9,24.7l0.6,1.6c0,0-7.1,0-8.6,5.7c0,0,6.9,38.2,10.8,43c0,0,2.5,6.7,8.9,7.1c6.4,0.3,7.6,0.1,7.6,0.1c0.3,2,0.7,4.5,1.3,7.6
				c2.8,17,7.4,21.2,7.4,21.2l3,4.3v0l4.5,50.9L78.2,429.8l-3.5,24.9c-36.1-47-57.7-106.3-57.7-170.8c0-152.5,120.4-276.1,269-276.1
				s269,123.6,269,276.1c0,17.4-1.6,34.4-4.6,50.9L370.8,133.3z"/>
			<path id="XMLID_6_" class="st7" d="M420.9,439.8l-49.8,21.1l47.3,45.8l-15.1,25.7c-23.9,11.9-49.7,20.3-76.8,24.5l14.2-150.4
				l0-0.1l2.9-30.4L420.9,439.8z"/>
		</g>
		<g id="XMLID_5_">
		</g>
	</g>
</g>
<g id="user_man" class="st0">
	<g id="XMLID_205_" class="st1">
		<g id="XMLID_230_">
			<path id="XMLID_257_" class="st4" d="M418.3,503.8L370.9,458l49.8-21.1l-77.2-64l150.2,53.9l3.5,25
				c-25.1,32.6-57.2,59.3-93.9,77.6L418.3,503.8z"/>
			<path id="XMLID_256_" class="st11" d="M367.2,287.7c-6,0.3-8.4,0-8.7,0v0c0,0,0,0,0,0l2.2-9.4l15.5-48.7c0,0,7.1,0,8.6,5.7
				c0,0-4.8,40.6-8.7,45.4C376.1,280.6,373.6,287.3,367.2,287.7z"/>
			<path id="XMLID_255_" class="st28" d="M379.5,145.2c-2.8-6.1-6-11.1-8.9-14.8l179.7,201.4c-8.1,44.7-26.7,85.7-53.2,120l-3.5-25
				L343.5,373l4.1-47.2v0l0.9-1.3c0,0,4.6-4.2,7.4-21.2c2.2-13.3,2.5-15.3,2.5-15.6c0.3,0,2.7,0.3,8.7,0c6.4-0.3,8.9-7.1,8.9-7.1
				c3.9-4.8,8.7-45.4,8.7-45.4c-1.5-5.7-8.6-5.7-8.6-5.7l0.1-0.2l9.4-18.3l-2.1-11.4l3.1,6.7c0,0,2.9-11.5-0.5-22.4
				c-3.4-10.9-5.4-15.8-5.4-15.8l5.2,8.3C386.1,176.5,386.7,160.9,379.5,145.2z"/>
			<path id="XMLID_254_" class="st3" d="M358.5,287.6C358.5,287.6,358.5,287.6,358.5,287.6C358.5,287.7,358.5,287.7,358.5,287.6
				L358.5,287.6z"/>
			<path id="XMLID_253_" class="st3" d="M358.5,287.7L358.5,287.7C358.5,287.7,358.5,287.7,358.5,287.7
				C358.5,287.7,358.5,287.7,358.5,287.7z"/>
			<path id="XMLID_249_" class="st12" d="M271,194l69-17.1l-23.5,16.8l34.2-4.5l-2.1,17.3l6.7-10.7l5.5,20.1v62.3l-2.2,9.4l0,0
				c0,0,0,0,0,0c0,0.3-0.3,2.3-2.5,15.6c-2.8,17-7.4,21.2-7.4,21.2l-0.9,1.3v0l-15.5,22.5c0,0-1.3,1.7-3.2,4.1
				c-3.6,4.6-9.5,11.9-13.4,15.3c-6,5.2-12.2,6.6-12.2,6.6c-9.3,4.1-32.5,0-32.5,0c-4.9-1.7-13.9-9.8-17.3-12.9
				c-0.8-0.8-1.3-1.2-1.3-1.2c-5-4.9-12.1-14.4-14.3-17.5c-0.5-0.6-0.7-1-0.7-1l-13.4-19.5v0l-3-4.3c0,0-4.6-4.2-7.4-21.2
				c-0.5-3.1-0.9-5.6-1.3-7.6l-1.3-8v0c0,0,0.3-69.6,13.1-77.2c0,0,48.2-19.8,65.6-23.2L271,194z M338.7,234.3l11.8,4.2
				c0,0-3.3-4.8-8.4-9.2c0,0-4.6-4.1-10.2-3.5c0,0-8.7,0.3-14.2,2.1c0,0-7.2,1.2-9,2.3c0,0-12.1,6.4,0,6.7c0,0,8.4-0.5,18-1.8
				C336.3,233.7,338.7,234.3,338.7,234.3z M268.9,236c12.1-0.3,0-6.8,0-6.8c-1.8-1-9-2.3-9-2.3c-5.5-1.7-14.2-2.1-14.2-2.1
				c-5.6-0.6-10.2,3.5-10.2,3.5c-5.1,4.4-8.4,9.2-8.4,9.2l11.8-4.2c0,0,2.4-0.6,12,0.8S268.9,236,268.9,236z"/>
			<path id="XMLID_248_" class="st10" d="M350.5,238.5l-11.8-4.2c0,0-2.4-0.6-12,0.8c-9.6,1.4-18,1.8-18,1.8c-12.1-0.3,0-6.7,0-6.7
				c1.8-1,9-2.3,9-2.3c5.5-1.7,14.2-2.1,14.2-2.1c5.6-0.6,10.2,3.5,10.2,3.5C347.2,233.7,350.5,238.5,350.5,238.5z"/>
			<path id="XMLID_247_" class="st11" d="M332.2,348.3l15.5-22.5l-4.1,47.2l-57.6,47l-57.6-47l-4.5-50.9l13.4,19.5
				c0,0,0.3,0.3,0.7,1c0.4,1,7.5,16.5,13.2,23.3c0,0,11.2,17.7,19.4,24.4c0,0,15.1,12.7,33.1,0c0,0,6.9-7.2,10.4-13
				c3.5-5.8,11.8-16.8,15-24.9l0,0C330.9,350,332.2,348.3,332.2,348.3z"/>
			<path id="XMLID_246_" class="st7" d="M326.4,553.9l14.2-150.4l0-0.1l2.9-30.4l77.2,64L370.9,458l47.3,45.8l-15.1,25.7
				C379.3,541.4,353.5,549.7,326.4,553.9z"/>
			<path id="XMLID_245_" class="st26" d="M285.8,420l57.6-47l-2.9,30.4l0,0.1l-10.5,60.6l-19.2-19.2L285.8,420l0,137c0,0,0,0,0,0
				V420z"/>
			<path id="XMLID_244_" class="st13" d="M340.6,403.5l-14.2,150.4c-5.8,0.9-11.7,1.6-17.6,2.1l-13.8-92l15.9-19.2l19.2,19.2
				L340.6,403.5z"/>
			<path id="XMLID_243_" class="st16" d="M294.9,464.1l13.8,92c-7.5,0.7-15.1,1-22.8,1V420l24.9,24.9L294.9,464.1z"/>
			<path id="XMLID_242_" class="st17" d="M263,556.1l13.8-92l-15.8-19.2l24.9-24.9v137C278.2,557,270.5,556.7,263,556.1z"/>
			<path id="XMLID_241_" class="st10" d="M268.9,229.2c0,0,12.1,6.4,0,6.8c0,0-8.4-0.5-18-1.8s-12-0.8-12-0.8l-11.8,4.2
				c0,0,3.3-4.8,8.4-9.2c0,0,4.6-4.1,10.2-3.5c0,0,8.7,0.3,14.2,2.1C259.9,226.9,267.1,228.2,268.9,229.2z"/>
			<path id="XMLID_240_" class="st18" d="M263,556.1l-0.6,3.9h-16.5l-0.6-6C251.2,554.8,257.1,555.5,263,556.1z"/>
			<path id="XMLID_239_" class="st14" d="M315.5,367.6c3.9-3.4,9.8-10.6,13.4-15.3l0,0c-3.2,8.1-11.5,19.1-15,24.9
				c-3.5,5.8-10.4,13-10.4,13c-18,12.7-33.1,0-33.1,0c-8.2-6.7-19.4-24.4-19.4-24.4c-5.8-6.8-12.8-22.3-13.2-23.3
				c2.2,3.1,9.3,12.5,14.3,17.5c0,0,0.5,0.5,1.3,1.2c3.4,3.1,12.4,11.2,17.3,12.9c0,0,23.2,4.1,32.5,0
				C303.3,374.2,309.6,372.8,315.5,367.6z"/>
			<polygon id="XMLID_238_" class="st25" points="285.8,420 260.9,444.9 241.7,464.1 231.1,403.4 231.1,403.4 228.2,373 			"/>
			<path id="XMLID_237_" class="st23" d="M276.8,464.1l-13.8,92c-5.9-0.5-11.8-1.2-17.6-2.1l-14.3-150.5h0l10.5,60.7l19.2-19.2
				L276.8,464.1z"/>
			<path id="XMLID_236_" class="st19" d="M231.1,403.4l14.3,150.5c-27.2-4.2-53-12.6-76.9-24.5l-15.1-25.7l47.3-45.8L151,436.9
				l77.2-64L231.1,403.4z"/>
			<path id="XMLID_235_" class="st29" d="M213.4,296.6c2.8,17,7.4,21.2,7.4,21.2l3,4.3v0l4.5,50.9L78.1,426.9l-3.5,24.9
				c-36.1-47-57.7-106.3-57.7-170.8c0-152.5,120.4-276.1,269-276.1s269,123.6,269,276.1c0,17.4-1.6,34.4-4.6,50.9L370.6,130.4
				c-4.5-5.8-8.1-8.7-8.1-8.7s-9-7.3-19.2-7.5c-10.2-0.3-15.9,1.4-15.9,1.4s-24.1-26.3-67.8-15.6c0,0-26,6.4-49.4,29.3
				c0,0-11,11-14,15.6l13.4-5.5c0,0-12.8,17.7-20.5,40.3c0,0-3.4,16.8,0,30.2l2.7-3.1l0.9,24.7l0.6,1.6c0,0-7.1,0-8.6,5.7
				c0,0,6.9,38.2,10.8,43c0,0,2.5,6.7,8.9,7.1c6.4,0.3,7.6,0.1,7.6,0.1C212.4,290.9,212.8,293.5,213.4,296.6z"/>
			<path id="XMLID_234_" class="st21" d="M210.8,281l1.3,8C211,282.1,210.8,281.1,210.8,281z"/>
			<path id="XMLID_233_" class="st10" d="M316.4,193.7l23.5-16.8L271,194l18.6-13.4c-17.4,3.4-65.6,23.2-65.6,23.2
				c-12.8,7.6-13.1,77.2-13.1,77.2l-17.4-47.9l-0.6-1.6l-0.9-24.7l-2.7,3.1c-3.4-13.4,0-30.2,0-30.2c7.6-22.6,20.5-40.3,20.5-40.3
				l-13.4,5.5c3.1-4.6,14-15.6,14-15.6c23.5-22.9,49.4-29.3,49.4-29.3c43.6-10.7,67.8,15.6,67.8,15.6s5.6-1.7,15.9-1.4
				c10.2,0.3,19.2,7.5,19.2,7.5s3.6,2.9,8.1,8.7c2.8,3.7,6,8.7,8.9,14.8c7.3,15.7,6.6,31.3,6.6,31.3l-5.2-8.3c0,0,2.1,4.9,5.4,15.8
				c3.4,10.9,0.5,22.4,0.5,22.4l-3.1-6.7l2.1,11.4l-9.4,18.3l-0.1,0.2l-15.5,48.7v-62.3l-5.5-20.1l-6.7,10.7l2.1-17.3L316.4,193.7z"
				/>
			<path id="XMLID_232_" class="st12" d="M210.8,281c0,0.1,0.1,1.1,1.3,8c0,0-1.2,0.3-7.6-0.1c-6.4-0.3-8.9-7.1-8.9-7.1
				c-3.9-4.8-10.8-43-10.8-43c1.5-5.7,8.6-5.7,8.6-5.7L210.8,281L210.8,281z"/>
			<path id="XMLID_231_" class="st4" d="M78.1,426.9L228.2,373l-77.2,64l49.7,21.1l-47.3,45.8l15.1,25.7
				c-36.8-18.3-68.9-45-93.9-77.7L78.1,426.9z"/>
		</g>
		<g id="XMLID_229_">
		</g>
	</g>
</g>
<g id="network_man_1_" class="st0">
	<g id="XMLID_151_" class="st1">
		<g id="XMLID_176_">
			<path id="XMLID_204_" class="st30" d="M555.1,283.9c0,17.4-1.6,34.4-4.6,50.9L370.8,133.3c-4.5-5.8-8.1-8.7-8.1-8.7
				s-9-7.3-19.2-7.5c-10.2-0.3-15.9,1.4-15.9,1.4s-24.1-26.3-67.8-15.6c0,0-26,6.4-49.4,29.3c0,0-11,11-14,15.6l13.4-5.5
				c0,0-12.8,17.7-20.5,40.3c0,0-3.4,16.8,0,30.2l2.7-3.1l0.9,24.7l0.6,1.6c0,0-7.1,0-8.6,5.7c0,0,6.9,38.2,10.8,43
				c0,0,2.5,6.7,8.9,7.1c6.4,0.3,7.6,0.1,7.6,0.1c0.3,2,0.7,4.5,1.3,7.6c2.8,17,7.4,21.2,7.4,21.2l3,4.3v0l4.5,50.9L78.2,429.8
				l-3.5,24.9c-36.1-47-57.7-106.3-57.7-170.8c0-152.5,120.4-276.1,269-276.1S555.1,131.4,555.1,283.9z"/>
			<path id="XMLID_203_" class="st31" d="M370.8,133.3l179.7,201.4c-8.1,44.7-26.8,85.7-53.2,120l-3.5-25l-150.2-53.9l4.1-47.2v0
				l0.9-1.3c0,0,4.6-4.2,7.4-21.2c2.2-13.3,2.5-15.3,2.5-15.6c0.3,0,2.7,0.3,8.7,0c6.4-0.3,8.9-7.1,8.9-7.1
				c3.9-4.8,8.7-45.4,8.7-45.4c-1.5-5.7-8.6-5.7-8.6-5.7l0.1-0.2l9.4-18.3l-2.1-11.4l3.1,6.7c0,0,2.9-11.5-0.5-22.4
				c-3.4-10.9-5.4-15.8-5.4-15.8l5.2,8.3c0,0,0.6-15.6-6.6-31.3C376.8,142,373.6,137.1,370.8,133.3z"/>
			<path id="XMLID_202_" class="st4" d="M493.8,429.8l3.5,25c-25.1,32.6-57.2,59.3-93.9,77.6l15.1-25.7l-47.3-45.8l49.8-21.1
				l-77.2-64L493.8,429.8z"/>
			<path id="XMLID_201_" class="st7" d="M420.9,439.8l-49.8,21.1l47.3,45.8l-15.1,25.7c-23.9,11.9-49.7,20.3-76.8,24.5l14.2-150.4
				l0-0.1l2.9-30.4L420.9,439.8z"/>
			<path id="XMLID_200_" class="st10" d="M386.5,186.9c3.4,10.9,0.5,22.4,0.5,22.4l-3.1-6.7l2.1,11.4l-9.4,18.3l-0.1,0.2l-15.5,48.7
				v-62.3l-5.5-20.1l-6.7,10.7l2.1-17.3l-34.2,4.5l23.5-16.8l-69,17.1l18.6-13.4c-17.4,3.4-65.6,23.2-65.6,23.2
				c-12.8,7.6-13.1,77.2-13.1,77.2L193.6,236l-0.6-1.6l-0.9-24.7l-2.7,3.1c-3.4-13.4,0-30.2,0-30.2c7.6-22.6,20.5-40.3,20.5-40.3
				l-13.4,5.5c3.1-4.6,14-15.6,14-15.6c23.5-22.9,49.4-29.3,49.4-29.3c43.6-10.7,67.8,15.6,67.8,15.6s5.6-1.7,15.9-1.4
				c10.2,0.3,19.2,7.5,19.2,7.5s3.6,2.9,8.1,8.7c2.8,3.7,6,8.6,8.9,14.8c7.3,15.7,6.6,31.3,6.6,31.3l-5.2-8.3
				C381.1,171.1,383.2,176,386.5,186.9z"/>
			<path id="XMLID_199_" class="st11" d="M385,238.1c0,0-4.8,40.6-8.7,45.4c0,0-2.5,6.8-8.9,7.1c-6,0.3-8.4,0-8.7,0v0v0l2.2-9.4
				l15.5-48.7C376.4,232.5,383.5,232.5,385,238.1z"/>
			<path id="XMLID_195_" class="st12" d="M238.1,345.4c-0.5-0.6-0.7-1-0.7-1L223.9,325v0l-3-4.3c0,0-4.6-4.2-7.4-21.2
				c-0.5-3.1-0.9-5.6-1.3-7.6l-1.3-8v0c0,0,0.3-69.6,13.1-77.2c0,0,48.2-19.8,65.6-23.2l-18.6,13.4l69-17.1l-23.5,16.8l34.2-4.5
				l-2.1,17.3l6.7-10.7l5.5,20.1v62.3l-2.2,9.4l0,0c0,0,0,0,0,0c0,0.3-0.3,2.3-2.5,15.6c-2.8,17-7.4,21.2-7.4,21.2l-0.9,1.3v0
				l-15.5,22.5c0,0-1.3,1.7-3.2,4.1c-3.6,4.6-9.5,11.9-13.4,15.3c-6,5.2-12.2,6.6-12.2,6.6c-9.3,4.1-32.5,0-32.5,0
				c-5.1-1.8-14.9-10.7-17.8-13.4c-0.3-0.3-0.5-0.5-0.7-0.6c0,0,0,0,0,0c-0.1-0.1-0.1-0.1-0.1-0.1
				C247.4,358,240.3,348.5,238.1,345.4z M338.9,237.2l11.8,4.2c0,0-3.3-4.8-8.4-9.2c0,0-4.6-4.1-10.2-3.5c0,0-8.7,0.3-14.2,2.1
				c0,0-7.2,1.2-9,2.3c0,0-12.1,6.4,0,6.7c0,0,8.4-0.5,18-1.8C336.5,236.6,338.9,237.2,338.9,237.2z M269.1,238.9
				c12.1-0.3,0-6.8,0-6.8c-1.8-1-9-2.3-9-2.3c-5.5-1.7-14.2-2.1-14.2-2.1c-5.6-0.6-10.2,3.5-10.2,3.5c-5.1,4.4-8.4,9.2-8.4,9.2
				l11.8-4.2c0,0,2.4-0.6,12,0.8S269.1,238.9,269.1,238.9z"/>
			<polygon id="XMLID_194_" class="st3" points="358.7,290.5 358.7,290.6 358.7,290.6 			"/>
			<path id="XMLID_193_" class="st3" d="M358.7,290.6L358.7,290.6C358.7,290.6,358.7,290.6,358.7,290.6L358.7,290.6z"/>
			<path id="XMLID_192_" class="st10" d="M350.7,241.4l-11.8-4.2c0,0-2.4-0.6-12,0.8c-9.6,1.4-18,1.8-18,1.8c-12.1-0.3,0-6.7,0-6.7
				c1.8-1,9-2.3,9-2.3c5.5-1.7,14.2-2.1,14.2-2.1c5.6-0.6,10.2,3.5,10.2,3.5C347.4,236.6,350.7,241.4,350.7,241.4z"/>
			<path id="XMLID_191_" class="st11" d="M332.3,351.2l15.5-22.5l-4.1,47.2l-57.6,47l-57.6-47l-4.5-50.9l13.4,19.5
				c0,0,0.3,0.3,0.7,1c0.4,1,7.5,16.5,13.2,23.3c0,0,11.2,17.7,19.4,24.4c0,0,15.1,12.7,33.1,0c0,0,6.9-7.2,10.4-13
				c3.5-5.8,11.8-16.8,15-24.9l0,0C331.1,352.9,332.3,351.2,332.3,351.2z"/>
			<path id="XMLID_190_" class="st26" d="M343.7,375.9l-2.9,30.4l0,0.1L330.2,467L311,447.8l-24.9-24.9v137c0,0,0,0,0,0v-137
				L343.7,375.9z"/>
			<path id="XMLID_189_" class="st13" d="M330.2,467l10.5-60.6l-14.2,150.4c-5.8,0.9-11.7,1.6-17.6,2.1l-13.8-92l15.9-19.2
				L330.2,467z"/>
			<path id="XMLID_188_" class="st14" d="M329.1,355.3L329.1,355.3c-3.2,8.1-11.4,19.1-14.9,24.9c-3.5,5.8-10.4,13-10.4,13
				c-18,12.7-33.1,0-33.1,0c-8.2-6.7-19.4-24.4-19.4-24.4c-5.8-6.8-12.8-22.3-13.2-23.3c2.2,3.1,9.3,12.5,14.3,17.5c0,0,0,0,0.1,0.1
				c0,0,0,0,0,0c0.1,0.1,0.4,0.3,0.7,0.6c2.9,2.7,12.6,11.6,17.8,13.4c0,0,23.2,4.1,32.5,0c0,0,6.3-1.4,12.2-6.6
				C319.6,367.1,325.5,359.9,329.1,355.3z"/>
			<path id="XMLID_187_" class="st16" d="M286.1,422.9l24.9,24.9L295.1,467l13.8,92c-7.5,0.7-15.1,1-22.8,1V422.9z"/>
			<path id="XMLID_186_" class="st17" d="M286,422.9v137c-7.7,0-15.3-0.3-22.8-1l13.8-92l-15.8-19.2L286,422.9z"/>
			<polygon id="XMLID_185_" class="st25" points="286,422.9 261.1,447.8 241.9,467 231.3,406.3 231.3,406.3 228.4,375.9 			"/>
			<path id="XMLID_184_" class="st23" d="M261.1,447.8l15.8,19.2l-13.8,92c-5.9-0.5-11.8-1.2-17.6-2.1l-14.3-150.5h0l10.5,60.7
				L261.1,447.8z"/>
			<path id="XMLID_183_" class="st10" d="M269.1,232.1c0,0,12.1,6.4,0,6.8c0,0-8.4-0.5-18-1.8s-12-0.8-12-0.8l-11.8,4.2
				c0,0,3.3-4.8,8.4-9.2c0,0,4.6-4.1,10.2-3.5c0,0,8.7,0.3,14.2,2.1C260.1,229.8,267.3,231.1,269.1,232.1z"/>
			<path id="XMLID_182_" class="st18" d="M263.2,558.9l-0.6,3.9h-16.5l-0.6-6C251.4,557.7,257.3,558.4,263.2,558.9z"/>
			<path id="XMLID_181_" class="st21" d="M252.6,363.1C252.6,363.1,252.5,363.1,252.6,363.1C252.5,363,252.5,363.1,252.6,363.1z"/>
			<path id="XMLID_180_" class="st19" d="M231.3,406.3l14.3,150.5c-27.2-4.2-53-12.6-76.9-24.5l-15.1-25.7l47.3-45.8l-49.7-21.1
				l77.2-64L231.3,406.3z"/>
			<path id="XMLID_179_" class="st4" d="M228.4,375.9l-77.2,64l49.7,21.1l-47.3,45.8l15.1,25.7c-36.8-18.3-68.9-45-93.9-77.7
				l3.5-24.9L228.4,375.9z"/>
			<path id="XMLID_178_" class="st21" d="M211,283.9l1.3,8C211.1,285,211,284,211,283.9z"/>
			<path id="XMLID_177_" class="st12" d="M212.3,291.8c0,0-1.2,0.3-7.6-0.1c-6.4-0.3-8.9-7.1-8.9-7.1c-3.9-4.8-10.8-43-10.8-43
				c1.5-5.7,8.6-5.7,8.6-5.7l17.4,47.9v0C211,284,211.1,285,212.3,291.8z"/>
		</g>
		<g id="XMLID_175_">
		</g>
	</g>
</g>
<g id="unknow_user" class="st0">
	<g id="XMLID_261_" class="st1">
		<g id="XMLID_264_">
			<path id="XMLID_269_" class="st32" d="M519.9,420L519.9,420c-4.1,7.4-8.5,14.5-13.2,21.4c-39.1-18-88.1-31.3-143-37.9
				c-21,28.8-49.3,46.4-80.3,46.4c-3.5,0-7-0.2-10.4-0.7v0l-53.4-86.9c17.3,21,39.5,33.6,63.8,33.6c55.2,0,100-65.4,100-146.1
				c0-33.4-7.7-64.2-20.6-88.8l0,0L519.9,420z"/>
			<path id="XMLID_266_" class="st33" d="M554.9,283.9c0,49.5-12.7,96-34.9,136.1l-157-259l0,0c-18.3-34.8-47-57.3-79.4-57.3
				c-55.2,0-100,65.4-100,146.1c0,45.3,14.1,85.7,36.2,112.5l53.4,86.9v0c-26.9-3.5-51.3-20.2-69.9-45.7
				C150,410,102.3,422.6,63.9,439.8c-29.6-44.4-47-98.1-47-155.9c0-152.5,120.4-276.1,269-276.1S554.9,131.4,554.9,283.9z"/>
			<path id="XMLID_270_" class="st18" d="M362.9,161c12.9,24.6,20.6,55.4,20.6,88.8c0,80.7-44.8,146.1-100,146.1
				c-24.3,0-46.5-12.6-63.8-33.6c-22.1-26.8-36.2-67.3-36.2-112.5c0-80.7,44.8-146.1,100-146.1C315.8,103.7,344.6,126.2,362.9,161z"
				/>
			<path id="XMLID_267_" class="st18" d="M506.8,441.4c-48.6,71.6-129.4,118.5-220.9,118.5c-92.2,0-173.6-47.6-222-120.2
				c38.5-17.1,86.2-29.8,139.3-36.2c18.6,25.5,43,42.3,69.9,45.7c3.4,0.4,6.9,0.7,10.4,0.7c31.1,0,59.3-17.6,80.3-46.4
				C418.6,410.2,467.7,423.5,506.8,441.4z"/>
		</g>
		<g id="XMLID_265_">
		</g>
	</g>
</g>
</svg>
