<!-- Generator: Adobe Illustrator 19.0.0, SVG Export Plug-In  -->
<svg version="1.1"
	 xmlns="http://www.w3.org/2000/svg" xmlns:xlink="http://www.w3.org/1999/xlink" xmlns:a="http://ns.adobe.com/AdobeSVGViewerExtensions/3.0/"
	 x="0px" y="0px" width="321.9px" height="265.4px" viewBox="0 0 321.9 265.4" style="enable-background:new 0 0 321.9 265.4;"
	 xml:space="preserve">
<style type="text/css">
	.st0{fill:#FFFFFF;}
	.st1{fill:#647783;}
	.st2{fill:#4B606F;}
	.st3{fill:#354F5C;}
	.st4{fill:#E75426;}
	.st5{fill:#0F1F35;}
	.st6{fill:#D2D2D2;}
	.st7{fill:#C0D9E7;}
</style>
<defs>
</defs>
<g id="XMLID_26_">
	<g id="XMLID_40_">
		<path id="XMLID_55_" class="st0" d="M264.3,256.3c3.6,8.6-5,8.5-5,8.5s-224.1,0.6-234,0.1c-9.9-0.5-4.4-9.6-4.4-9.6l17.5-37.7
			c24.6,2,207.5,0,207.5,0s0.1,0,0.4,0.1C253.8,233.3,262.4,251.6,264.3,256.3z"/>
		<path id="XMLID_54_" class="st1" d="M287.8,102.3c1.9,5.4,2.5,11,2.5,16H0.3h0c-0.1-9.8,2.2-16,2.2-16H287.8z"/>
		<path id="XMLID_53_" class="st2" d="M0.3,118.3h290c0,7.2-1.3,13.1-1.7,14.8H1.9c-0.3-1.6-0.5-3.1-0.7-4.3
			C0.5,125,0.3,121.5,0.3,118.3L0.3,118.3z"/>
		<path id="XMLID_52_" class="st3" d="M1.9,133.1h286.6c-0.1,0.3-0.1,0.5-0.1,0.5l-9.3,62.8c-6.5,23.3-29.4,21.7-32.8,21.3
			c-1.2-2.5-2.3-4.9-3.4-7.1h20.2v-32H24.7v32h17l-3.3,7.1c-0.1,0-0.1,0-0.2,0c-23.8-2-26.8-21-26.8-21S5.1,152.2,1.9,133.1z"/>
		<path id="XMLID_51_" class="st2" d="M287.8,102.3H2.5c0,0,1.6-3.3,3.9-8h0h277.4l0.1,0.3C285.6,97,286.9,99.7,287.8,102.3z"/>
		<path id="XMLID_48_" class="st3" d="M272,71.3l11.9,23H6.4c3.6-7.2,8.9-17.7,13.3-25.3C27,56.6,40.5,55.6,40.5,55.6h19.7h85
			c0,0,31.2,0,59.8,0h23c9.3,0,16.8,0,20.5,0C265.3,55.6,272,71.3,272,71.3z M274.9,85.1c0-2.5-3.8-4.4-8.4-4.4
			c-4.6,0-8.4,2-8.4,4.4s3.8,4.4,8.4,4.4C271.2,89.6,274.9,87.6,274.9,85.1z"/>
		<path id="XMLID_47_" class="st4" d="M266.5,80.7c4.6,0,8.4,2,8.4,4.4s-3.8,4.4-8.4,4.4c-4.6,0-8.4-2-8.4-4.4
			S261.9,80.7,266.5,80.7z"/>
		<path id="XMLID_46_" class="st5" d="M263.2,178.5v32H243c-1.3-2.8-2.5-5.4-3.6-7.6c-2.7-5.7-4.4-9.4-4.4-9.4s-1-4.6-6.6-3.5
			l-173.9-0.2c0,0-3.3,0.2-4.9,3.7l-4.3,9.2l-3.6,7.9h-17v-32H263.2z"/>
		<path id="XMLID_45_" class="st0" d="M246.4,217.6c-0.3,0-0.4-0.1-0.4-0.1s-182.9,2-207.5,0l3.3-7.1H243
			C244.1,212.8,245.2,215.2,246.4,217.6z"/>
		<path id="XMLID_44_" class="st0" d="M243,210.5H41.7l3.6-7.9l194,0.2l0,0C240.5,205.1,241.7,207.7,243,210.5z"/>
		<path id="XMLID_43_" class="st6" d="M239.4,202.9L239.4,202.9l-194.1-0.2l4.3-9.2c1.6-3.5,4.9-3.7,4.9-3.7l173.9,0.2
			c5.6-1.1,6.6,3.5,6.6,3.5S236.7,197.2,239.4,202.9z"/>
		<polygon id="XMLID_42_" class="st0" points="225.4,0.3 228,55.6 205,55.6 60.1,55.6 62.9,0.4 		"/>
		<path id="XMLID_41_" class="st7" d="M205,55.6c-28.5,0-59.8,0-59.8,0h-85L205,55.6z"/>
	</g>
	<g id="XMLID_39_">
	</g>
</g>
<g id="XMLID_15_">
	<g id="XMLID_21_">
		<path id="XMLID_25_" class="st0" d="M285.8,182.8v7.2c0,2.1-1.4,3.6-3.6,3.6h-30.4c-1.1,0-1.8,0.7-1.8,1.8v30.4
			c0,2.1-1.4,3.6-3.6,3.6h-7.2c-2.1,0-3.6-1.4-3.6-3.6v-30.4c0-1.1-0.7-1.8-1.8-1.8h-30.4c-2.1,0-3.6-1.4-3.6-3.6v-7.2
			c0-2.1,1.4-3.6,3.6-3.6h30.4c1.1,0,1.8-0.7,1.8-1.8V147c0-2.1,1.4-3.6,3.6-3.6h7.2c2.2,0,3.6,1.4,3.6,3.6v30.4
			c0,1.1,0.7,1.8,1.8,1.8h30.4C284.4,179.2,285.8,180.6,285.8,182.8z"/>
		<path id="XMLID_22_" class="st1" d="M242.9,107.6c43.7,0,78.8,35.1,78.8,78.8c0,43.7-35.1,78.8-78.8,78.8
			c-43.7,0-78.8-35.1-78.8-78.8C164.1,142.7,199.2,107.6,242.9,107.6z M285.8,190v-7.2c0-2.1-1.4-3.6-3.6-3.6h-30.4
			c-1.1,0-1.8-0.7-1.8-1.8V147c0-2.1-1.4-3.6-3.6-3.6h-7.2c-2.1,0-3.6,1.4-3.6,3.6v30.4c0,1.1-0.7,1.8-1.8,1.8h-30.4
			c-2.1,0-3.6,1.4-3.6,3.6v7.2c0,2.1,1.4,3.6,3.6,3.6h30.4c1.1,0,1.8,0.7,1.8,1.8v30.4c0,2.1,1.4,3.6,3.6,3.6h7.2
			c2.2,0,3.6-1.4,3.6-3.6v-30.4c0-1.1,0.7-1.8,1.8-1.8h30.4C284.4,193.5,285.8,192.1,285.8,190z"/>
	</g>
	<g id="XMLID_20_">
	</g>
</g>
</svg>
