<!-- Generator: Adobe Illustrator 19.0.0, SVG Export Plug-In  -->
<svg version="1.1"
	 xmlns="http://www.w3.org/2000/svg" xmlns:xlink="http://www.w3.org/1999/xlink" xmlns:a="http://ns.adobe.com/AdobeSVGViewerExtensions/3.0/"
	 x="0px" y="0px" width="131.9px" height="127.4px" viewBox="0 0 131.9 127.4" style="enable-background:new 0 0 131.9 127.4;"
	 xml:space="preserve">
<style type="text/css">
	.st0{fill:#6D6E71;}
	.st1{fill:#E2C7AA;}
	.st2{fill:#E2E3E4;}
	.st3{fill:#888A8C;}
	.st4{fill:#EAD7C3;}
	.st5{fill:#EBEBEC;}
	.st6{fill:#DF9F8F;}
	.st7{fill:#E4B0A2;}
	.st8{fill:#7896B5;}
	.st9{fill:#9FB2C9;}
</style>
<defs>
</defs>
<g id="XMLID_125_">
	<g id="XMLID_145_">
		<path id="XMLID_179_" class="st0" d="M67,47.1l-2,7.3l-8.3-2.2l0.1-0.4c0.4-1,0.8-2.1,1.1-3.2c0.3-1.1,0.5-2.3,0.7-3.4l0.1-0.3
			L67,47.1z"/>
		<path id="XMLID_178_" class="st0" d="M65.1,29.7l1.9,7.3l-8.3,2.2l0-0.1c-0.3-2.4-0.9-4.7-1.9-6.9l0-0.2L65.1,29.7z"/>
		<path id="XMLID_177_" class="st0" d="M60,63.2l-5.3,5.3l-6.1-6.1l0.3-0.3c1.8-1.4,3.4-3,4.8-4.8l0.2-0.2L60,63.2z"/>
		<path id="XMLID_176_" class="st0" d="M58.6,45.2c-0.1,1.1-0.4,2.2-0.7,3.4c-0.3,1.1-0.7,2.2-1.1,3.2L58.6,45.2z"/>
		<path id="XMLID_175_" class="st0" d="M58.6,45.2l-1.8,6.6c-0.8,2-1.9,3.9-3.2,5.5l-4.8,4.8c-1.7,1.3-3.7,2.4-5.7,3.2L36.9,67
			c-2.1,0.3-4.2,0.3-6.3,0L27.1,66l2.6-9.6l0,0c8,2.2,16.2-2.5,18.3-10.5c2.1-7.9-2.6-16.1-10.5-18.3l0,0l2.6-9.7l3.6,1l0,0
			c1.8,0.8,3.4,1.7,4.9,2.9l5.1,5.1c1.2,1.6,2.3,3.4,3,5.3l1.9,6.9C58.9,41.1,58.9,43.1,58.6,45.2z"/>
		<path id="XMLID_174_" class="st0" d="M58.7,39.1l-1.9-6.9C57.8,34.3,58.4,36.7,58.7,39.1z"/>
		<path id="XMLID_173_" class="st0" d="M48.8,62.1l4.8-4.8C52.3,59.1,50.6,60.7,48.8,62.1z"/>
		<path id="XMLID_172_" class="st0" d="M43.7,65.1l2.2,8.4l-7.3,1.9l-2.2-8.3l0.4-0.1c2.2-0.3,4.3-0.8,6.3-1.7L43.7,65.1z"/>
		<path id="XMLID_171_" class="st0" d="M60.1,21L54,27.1l-0.2-0.2c-1.4-1.9-3.1-3.6-5.1-5.1l-0.1-0.1l6.1-6.1L60.1,21z"/>
		<path id="XMLID_170_" class="st0" d="M53.8,26.9l-5.1-5.1C50.7,23.3,52.4,25,53.8,26.9z"/>
		<path id="XMLID_169_" class="st0" d="M36.9,67l6.3-1.7C41.1,66.1,39,66.7,36.9,67z"/>
		<path id="XMLID_168_" class="st1" d="M37.5,27.6c8,2.2,12.7,10.3,10.5,18.3c-2.2,8-10.3,12.6-18.3,10.5l0,0l2.2-8.1l0,0
			c3.5,0.9,7.1-1.1,8-4.6c0.9-3.5-1.1-7.1-4.6-8l0,0L37.5,27.6L37.5,27.6z"/>
		<path id="XMLID_167_" class="st2" d="M35.3,35.7c3.5,0.9,5.5,4.5,4.6,8c-0.9,3.5-4.5,5.5-8,4.6l0,0L35.3,35.7L35.3,35.7z"/>
		<path id="XMLID_166_" class="st0" d="M30.8,67l-2.3,8.3l-3.7-1l2.2-8.1c1.2,0.3,2.3,0.5,3.5,0.7L30.8,67z"/>
		<path id="XMLID_165_" class="st0" d="M46,10.6l-2.2,8.3l0,0c-1.1-0.5-2.3-0.9-3.6-1.3l2.2-8.1L46,10.6z"/>
		<path id="XMLID_164_" class="st0" d="M43.8,18.9l-3.6-1l0.1-0.3C41.4,18,42.6,18.4,43.8,18.9z"/>
		<path id="XMLID_163_" class="st0" d="M27.1,66l3.4,0.9c-1.2-0.1-2.3-0.4-3.5-0.7L27.1,66z"/>
		<path id="XMLID_162_" class="st3" d="M27.1,66.3l-2.2,8.1l-3.6-1l2.3-8.3l0.2,0.1C24.8,65.6,25.9,66,27.1,66.3z"/>
		<path id="XMLID_161_" class="st3" d="M27.1,66l-0.1,0.2c-1.1-0.3-2.3-0.7-3.3-1.2L27.1,66z"/>
		<path id="XMLID_160_" class="st3" d="M29.7,56.4L27.1,66l-3.4-0.9c-1.9-0.8-3.6-1.8-5.2-3l-5-5c-1.2-1.6-2.3-3.4-3-5.2l-1.9-7.1
			l0,0c-0.2-1.9-0.2-3.8,0-5.8l1.9-7c0.8-1.8,1.8-3.5,2.9-5.1l5.2-5.2c1.6-1.2,3.4-2.2,5.2-2.9l6.8-1.8c1.9-0.2,3.9-0.2,5.8,0l3.6,1
			l-2.6,9.7c-8-2.1-16.2,2.5-18.3,10.5C17.1,46.1,21.8,54.2,29.7,56.4z"/>
		<path id="XMLID_159_" class="st4" d="M31.9,48.3l-2.2,8.1c-8-2.2-12.7-10.3-10.5-18.3c2.1-7.9,10.3-12.6,18.3-10.5l-2.2,8.1
			c-3.5-0.9-7.1,1.1-8,4.6C26.4,43.8,28.4,47.3,31.9,48.3z"/>
		<path id="XMLID_158_" class="st5" d="M35.3,35.7l-3.4,12.6c-3.5-1-5.5-4.5-4.6-8C28.3,36.8,31.8,34.8,35.3,35.7z"/>
		<path id="XMLID_157_" class="st3" d="M40.2,17.7L40.1,18l-3.6-1C37.8,17.1,39,17.3,40.2,17.7z"/>
		<path id="XMLID_156_" class="st3" d="M42.4,9.6l-2.2,8.1c-1.2-0.3-2.5-0.6-3.7-0.7l2.2-8.3L42.4,9.6z"/>
		<path id="XMLID_155_" class="st3" d="M18.7,62.2l-6.1,6.1L7.2,63l6.1-6.1l0.2,0.2c1.4,1.9,3.1,3.5,5,5L18.7,62.2z"/>
		<path id="XMLID_154_" class="st3" d="M28.7,8.6l2.2,8.3l-0.1,0c-2.4,0.3-4.7,0.9-6.8,1.8l-0.3,0.1l-2.2-8.3L28.7,8.6z"/>
		<path id="XMLID_153_" class="st3" d="M30.7,17l-6.8,1.8C26,17.9,28.3,17.2,30.7,17z"/>
		<path id="XMLID_152_" class="st3" d="M13.5,57.1l5,5C16.6,60.7,14.9,59,13.5,57.1z"/>
		<path id="XMLID_151_" class="st3" d="M18.7,21.6L18.7,21.6c-2,1.5-3.8,3.3-5.3,5.3l0,0l-6.1-6.1l5.3-5.3L18.7,21.6z"/>
		<path id="XMLID_150_" class="st3" d="M10.5,51.9l0,0.1l-8.3,2.2L0.3,47l8.3-2.2l0,0C8.9,47.3,9.5,49.7,10.5,51.9z"/>
		<path id="XMLID_149_" class="st3" d="M18.7,21.7l-5.2,5.2C14.9,24.9,16.7,23.2,18.7,21.7z"/>
		<path id="XMLID_148_" class="st3" d="M8.6,44.8l1.9,7.1C9.5,49.7,8.9,47.3,8.6,44.8z"/>
		<path id="XMLID_147_" class="st3" d="M8.6,39L8.6,39l-8.3-2.2l2-7.3l8.3,2.2l0,0.2c-0.5,1.1-0.9,2.2-1.2,3.4
			C9,36.6,8.7,37.8,8.6,39z"/>
		<path id="XMLID_146_" class="st3" d="M10.5,32l-1.9,7c0.1-1.2,0.4-2.4,0.7-3.6C9.6,34.2,10,33.1,10.5,32z"/>
	</g>
	<g id="XMLID_144_">
	</g>
</g>
<g id="XMLID_70_">
	<g id="XMLID_90_">
		<path id="XMLID_124_" class="st6" d="M119.4,7.3l5.3,5.3l-6.1,6.1l-0.3-0.3c-0.7-0.9-1.4-1.7-2.2-2.5c-0.8-0.8-1.7-1.6-2.6-2.3
			l-0.2-0.2L119.4,7.3z"/>
		<path id="XMLID_123_" class="st6" d="M103.3,0.3l7.3,2l-2.2,8.3l-0.1,0c-2.2-1-4.6-1.6-6.9-1.9l-0.2-0.1L103.3,0.3z"/>
		<path id="XMLID_122_" class="st6" d="M129.7,21.5l1.9,7.3l-8.3,2.2l-0.1-0.4c-0.3-2.2-0.8-4.5-1.7-6.6l-0.1-0.3L129.7,21.5z"/>
		<path id="XMLID_121_" class="st6" d="M113.5,13.6c0.9,0.7,1.8,1.4,2.6,2.3c0.8,0.8,1.5,1.7,2.2,2.5L113.5,13.6z"/>
		<path id="XMLID_120_" class="st6" d="M113.5,13.6l4.8,4.8c1.3,1.7,2.4,3.6,3.2,5.6l1.7,6.6c0.3,2.2,0.3,4.4-0.1,6.5l-1.7,6.3
			c-0.8,1.9-1.9,3.8-3.2,5.5l-2.5,2.5l-7-7.1l0,0c5.8-5.8,5.9-15.3,0.1-21.1c-5.8-5.8-15.2-5.9-21.1,0l0,0L80.6,16l2.7-2.7l0,0
			c1.6-1.1,3.2-2.1,5-2.8l6.9-1.9c2-0.3,4.1-0.3,6.1,0l6.9,1.9C110.1,11.3,111.8,12.3,113.5,13.6z"/>
		<path id="XMLID_119_" class="st6" d="M108.2,10.5l-6.9-1.9C103.7,8.9,106,9.6,108.2,10.5z"/>
		<path id="XMLID_118_" class="st6" d="M123.2,30.6l-1.7-6.6C122.4,26.1,122.9,28.3,123.2,30.6z"/>
		<path id="XMLID_117_" class="st6" d="M123.3,36.5l8.3,2.3l-2,7.3l-8.3-2.3l0.1-0.4c0.8-2,1.4-4.1,1.7-6.3L123.3,36.5z"/>
		<path id="XMLID_116_" class="st6" d="M93.2,0.3l2.2,8.3l-0.3,0.1c-2.4,0.3-4.7,0.9-6.9,1.9l-0.1,0L86,2.2L93.2,0.3z"/>
		<path id="XMLID_115_" class="st6" d="M95.2,8.7l-6.9,1.9C90.5,9.5,92.8,8.9,95.2,8.7z"/>
		<path id="XMLID_114_" class="st6" d="M121.4,43.4l1.7-6.3C122.8,39.2,122.3,41.3,121.4,43.4z"/>
		<path id="XMLID_113_" class="st1" d="M87.7,23.1c5.8-5.8,15.3-5.8,21.1,0c5.8,5.8,5.8,15.3-0.1,21.1l0,0l-5.9-5.9l0,0
			c2.6-2.5,2.6-6.7,0-9.2c-2.5-2.6-6.7-2.6-9.2,0l0,0L87.7,23.1L87.7,23.1z"/>
		<path id="XMLID_112_" class="st2" d="M93.6,29c2.6-2.5,6.7-2.5,9.2,0c2.5,2.6,2.5,6.7,0,9.2l0,0L93.6,29L93.6,29z"/>
		<path id="XMLID_111_" class="st6" d="M118.4,48.7l6.1,6.1l-2.7,2.7l-5.9-5.9c0.9-0.8,1.6-1.7,2.3-2.7L118.4,48.7z"/>
		<path id="XMLID_110_" class="st6" d="M77.2,7.2l6.1,6.1l0,0c-1,0.7-2,1.5-2.9,2.5l-5.9-5.9L77.2,7.2z"/>
		<path id="XMLID_109_" class="st6" d="M83.3,13.4L80.6,16l-0.2-0.2C81.4,14.9,82.3,14.1,83.3,13.4z"/>
		<path id="XMLID_108_" class="st6" d="M115.8,51.3l2.5-2.5c-0.7,0.9-1.5,1.8-2.3,2.7L115.8,51.3z"/>
		<path id="XMLID_107_" class="st7" d="M115.9,51.5l5.9,5.9l-2.7,2.6l-6.1-6.1l0.2-0.2C114.2,53.1,115.1,52.3,115.9,51.5z"/>
		<path id="XMLID_106_" class="st7" d="M115.8,51.3l0.2,0.2c-0.8,0.8-1.7,1.6-2.7,2.3L115.8,51.3z"/>
		<path id="XMLID_105_" class="st7" d="M108.7,44.2l7,7.1l-2.5,2.5c-1.6,1.2-3.4,2.2-5.2,3l-6.8,1.8c-2,0.3-4.1,0.3-6.1,0l-7.1-1.9
			l0,0c-1.7-0.8-3.4-1.7-5-2.9L78,48.7c-1.2-1.6-2.2-3.3-2.9-5.1l-1.9-7.1c-0.2-2-0.2-4,0.1-6l1.9-6.8c0.8-1.8,1.7-3.5,2.9-5
			l2.7-2.6l7.1,7.1c-5.8,5.8-5.9,15.3-0.1,21.1C93.4,50,102.9,50.1,108.7,44.2z"/>
		<path id="XMLID_104_" class="st4" d="M102.8,38.3l5.9,5.9c-5.9,5.8-15.3,5.8-21.1,0c-5.8-5.8-5.8-15.3,0.1-21.1l5.9,5.9
			c-2.6,2.6-2.6,6.7,0,9.2C96.1,40.8,100.2,40.8,102.8,38.3z"/>
		<path id="XMLID_103_" class="st5" d="M93.6,29l9.2,9.3c-2.6,2.5-6.7,2.5-9.2,0C91,35.7,91.1,31.6,93.6,29z"/>
		<path id="XMLID_102_" class="st7" d="M80.4,15.8l0.2,0.2L78,18.6C78.7,17.6,79.5,16.7,80.4,15.8z"/>
		<path id="XMLID_101_" class="st7" d="M74.6,9.9l5.9,5.9c-0.9,0.9-1.7,1.8-2.5,2.8l-6.1-6.1L74.6,9.9z"/>
		<path id="XMLID_100_" class="st7" d="M108.2,56.8l2.2,8.3l-7.3,1.9l-2.2-8.3l0.3-0.1c2.3-0.3,4.6-0.9,6.8-1.8L108.2,56.8z"/>
		<path id="XMLID_99_" class="st7" d="M66.8,21.3l8.3,2.3l0,0.1c-1,2.2-1.6,4.5-1.9,6.8l-0.1,0.3l-8.3-2.3L66.8,21.3z"/>
		<path id="XMLID_98_" class="st7" d="M75.1,23.7l-1.9,6.8C73.5,28.2,74.1,25.9,75.1,23.7z"/>
		<path id="XMLID_97_" class="st7" d="M101.2,58.6l6.8-1.8C105.9,57.8,103.6,58.4,101.2,58.6z"/>
		<path id="XMLID_96_" class="st7" d="M73.1,36.4L73.1,36.4c0.3,2.5,0.9,4.9,1.9,7.2l0,0l-8.3,2.2l-1.9-7.3L73.1,36.4z"/>
		<path id="XMLID_95_" class="st7" d="M95.2,58.7l0.1,0L93.1,67l-7.3-2l2.2-8.3l0,0C90.4,57.7,92.8,58.4,95.2,58.7z"/>
		<path id="XMLID_94_" class="st7" d="M73.2,36.5l1.9,7.1C74,41.3,73.4,38.9,73.2,36.5z"/>
		<path id="XMLID_93_" class="st7" d="M88.1,56.8l7.1,1.9C92.8,58.4,90.4,57.7,88.1,56.8z"/>
		<path id="XMLID_92_" class="st7" d="M83.1,53.8L83.1,53.8L77,60l-5.3-5.3l6.1-6.1l0.1,0.1c0.7,0.9,1.5,1.9,2.4,2.7
			C81.2,52.3,82.1,53.1,83.1,53.8z"/>
		<path id="XMLID_91_" class="st7" d="M78,48.7l5.1,5.1c-1-0.7-1.9-1.5-2.8-2.4C79.5,50.6,78.7,49.6,78,48.7z"/>
	</g>
	<g id="XMLID_89_">
	</g>
</g>
<g id="XMLID_15_">
	<g id="XMLID_35_">
		<path id="XMLID_69_" class="st8" d="M68.5,127.2l-7.3-1.9l2.2-8.3l0.4,0.1c1,0.4,2.1,0.8,3.2,1.1c1.1,0.3,2.3,0.5,3.4,0.6l0.3,0.1
			L68.5,127.2z"/>
		<path id="XMLID_68_" class="st8" d="M85.9,125.1l-7.3,2l-2.3-8.3l0.1,0c2.4-0.3,4.7-0.9,6.9-1.9l0.2,0L85.9,125.1z"/>
		<path id="XMLID_67_" class="st8" d="M52.4,120.2l-5.3-5.3l6.1-6.1l0.3,0.3c1.4,1.8,3,3.4,4.8,4.8l0.2,0.2L52.4,120.2z"/>
		<path id="XMLID_66_" class="st8" d="M70.4,118.7c-1.1-0.1-2.2-0.3-3.4-0.6c-1.1-0.3-2.2-0.7-3.2-1.1L70.4,118.7z"/>
		<path id="XMLID_65_" class="st8" d="M70.4,118.7l-6.6-1.7c-2-0.8-3.9-1.9-5.6-3.2l-4.8-4.8c-1.3-1.7-2.4-3.6-3.3-5.7l-1.7-6.3
			c-0.3-2.1-0.3-4.2,0-6.3l0.9-3.4l9.7,2.5l0,0c-2.1,8,2.7,16.1,10.6,18.2c8,2.1,16.1-2.7,18.2-10.7l0,0l9.7,2.5l-1,3.6l0,0
			c-0.8,1.8-1.7,3.4-2.9,5l-5,5.1c-1.6,1.2-3.4,2.3-5.2,3.1l-6.9,1.9C74.5,119,72.5,119,70.4,118.7z"/>
		<path id="XMLID_64_" class="st8" d="M76.5,118.7l6.9-1.9C81.3,117.8,78.9,118.4,76.5,118.7z"/>
		<path id="XMLID_63_" class="st8" d="M53.5,109.1l4.8,4.8C56.4,112.5,54.8,110.9,53.5,109.1z"/>
		<path id="XMLID_62_" class="st8" d="M50.3,104l-8.3,2.2L40,99l8.3-2.2l0.1,0.4c0.3,2.2,0.9,4.3,1.7,6.3L50.3,104z"/>
		<path id="XMLID_61_" class="st8" d="M94.6,120l-6.1-6l0.2-0.2c1.9-1.4,3.6-3.1,5-5.1l0.1-0.1l6.1,6L94.6,120z"/>
		<path id="XMLID_60_" class="st8" d="M88.7,113.8l5-5.1C92.3,110.6,90.6,112.3,88.7,113.8z"/>
		<path id="XMLID_59_" class="st8" d="M48.5,97.1l1.7,6.3C49.4,101.4,48.8,99.3,48.5,97.1z"/>
		<path id="XMLID_58_" class="st1" d="M87.8,97.5c-2.1,8-10.2,12.7-18.2,10.7c-8-2.1-12.7-10.3-10.6-18.2l0,0l8.1,2.1l0,0
			c-0.9,3.5,1.2,7.1,4.7,8c3.5,0.9,7.1-1.2,8-4.7l0,0L87.8,97.5L87.8,97.5z"/>
		<path id="XMLID_57_" class="st2" d="M79.7,95.4c-0.9,3.5-4.5,5.6-8,4.7c-3.5-0.9-5.6-4.5-4.7-8l0,0L79.7,95.4L79.7,95.4z"/>
		<path id="XMLID_56_" class="st8" d="M48.4,91L40,88.9l1-3.7l8.1,2.1c-0.3,1.2-0.5,2.3-0.7,3.5L48.4,91z"/>
		<path id="XMLID_55_" class="st8" d="M104.9,105.9l-8.3-2.2l0,0c0.5-1.1,0.9-2.3,1.2-3.6l8.1,2.1L104.9,105.9z"/>
		<path id="XMLID_54_" class="st8" d="M96.6,103.7l1-3.6l0.3,0.1C97.5,101.3,97.1,102.5,96.6,103.7z"/>
		<path id="XMLID_53_" class="st8" d="M49.3,87.4l-0.9,3.4c0.1-1.2,0.4-2.3,0.7-3.5L49.3,87.4z"/>
		<path id="XMLID_52_" class="st9" d="M49.1,87.3L41,85.2l1-3.6l8.3,2.2L50.2,84C49.8,85,49.4,86.2,49.1,87.3z"/>
		<path id="XMLID_51_" class="st9" d="M49.3,87.4l-0.2-0.1c0.3-1.2,0.7-2.3,1.1-3.3L49.3,87.4z"/>
		<path id="XMLID_50_" class="st9" d="M59,89.9l-9.7-2.5l0.9-3.4c0.8-1.9,1.8-3.7,3-5.3l4.9-5c1.6-1.2,3.4-2.3,5.2-3.1l7.1-1.9l0,0
			c1.9-0.2,3.8-0.2,5.8,0l7,1.8c1.8,0.8,3.6,1.7,5.1,2.9l5.2,5.2c1.2,1.6,2.2,3.3,3,5.2l1.8,6.8c0.2,1.9,0.3,3.9,0,5.8l-1,3.6
			l-9.7-2.5c2.1-8-2.7-16.1-10.6-18.2C69.2,77.2,61.1,81.9,59,89.9z"/>
		<path id="XMLID_49_" class="st4" d="M67.1,92.1L59,89.9c2.1-8,10.2-12.7,18.2-10.7c8,2.1,12.7,10.2,10.6,18.2l-8.1-2.1
			c0.9-3.5-1.2-7.1-4.6-8C71.6,86.5,68,88.6,67.1,92.1z"/>
		<path id="XMLID_48_" class="st5" d="M79.7,95.4l-12.6-3.3c0.9-3.5,4.5-5.6,8-4.7C78.6,88.3,80.6,91.9,79.7,95.4z"/>
		<path id="XMLID_47_" class="st9" d="M97.8,100.1l-0.3-0.1l1-3.6C98.3,97.7,98.1,98.9,97.8,100.1z"/>
		<path id="XMLID_46_" class="st9" d="M105.8,102.2l-8.1-2.1c0.3-1.2,0.6-2.5,0.7-3.7l8.3,2.2L105.8,102.2z"/>
		<path id="XMLID_45_" class="st9" d="M53.1,78.9l-6.2-6.1l5.3-5.4l6.2,6l-0.2,0.2c-1.9,1.4-3.5,3.1-4.9,5L53.1,78.9z"/>
		<path id="XMLID_44_" class="st9" d="M106.8,88.5l-8.3,2.2l0-0.1c-0.3-2.4-0.9-4.7-1.8-6.8l-0.1-0.3l8.3-2.2L106.8,88.5z"/>
		<path id="XMLID_43_" class="st9" d="M98.4,90.6l-1.8-6.8C97.5,85.9,98.1,88.2,98.4,90.6z"/>
		<path id="XMLID_42_" class="st9" d="M58.1,73.7l-4.9,5C54.6,76.8,56.3,75.1,58.1,73.7z"/>
		<path id="XMLID_41_" class="st9" d="M93.7,78.7L93.7,78.7c-1.5-2-3.3-3.8-5.3-5.3l0,0l6.1-6.1l5.3,5.3L93.7,78.7z"/>
		<path id="XMLID_40_" class="st9" d="M63.4,70.6l-0.1,0l-2.3-8.3l7.3-2l2.3,8.3l0,0C68,69,65.6,69.6,63.4,70.6z"/>
		<path id="XMLID_39_" class="st9" d="M93.6,78.6l-5.2-5.2C90.4,74.9,92.1,76.6,93.6,78.6z"/>
		<path id="XMLID_38_" class="st9" d="M70.4,68.7l-7.1,1.9C65.6,69.6,68,69,70.4,68.7z"/>
		<path id="XMLID_37_" class="st9" d="M76.2,68.7L76.2,68.7l2.1-8.4l7.3,1.9l-2.2,8.3l-0.2,0c-1.1-0.5-2.2-0.9-3.4-1.2
			C78.6,69,77.4,68.8,76.2,68.7z"/>
		<path id="XMLID_36_" class="st9" d="M83.3,70.5l-7-1.8c1.2,0.1,2.4,0.4,3.6,0.7C81,69.6,82.2,70,83.3,70.5z"/>
	</g>
	<g id="XMLID_34_">
	</g>
</g>
</svg>
