<!-- Generator: Adobe Illustrator 19.0.0, SVG Export Plug-In  -->
<svg version="1.1"
	 xmlns="http://www.w3.org/2000/svg" xmlns:xlink="http://www.w3.org/1999/xlink" xmlns:a="http://ns.adobe.com/AdobeSVGViewerExtensions/3.0/"
	 x="0px" y="0px" width="62.6px" height="135.5px" viewBox="0 0 62.6 135.5" style="enable-background:new 0 0 62.6 135.5;"
	 xml:space="preserve">
<style type="text/css">
	.st0{fill:#FCFAF1;}
	.st1{fill:#787189;}
	.st2{fill:#FAA74A;}
	.st3{fill:#4F4E54;}
	.st4{fill:#3D3C42;}
	.st5{fill:#9FBEC8;}
	.st6{fill:#655E72;}
	.st7{fill:#5C5961;}
	.st8{fill:#8CADB6;}
	.st9{fill:#362F34;}
	.st10{fill:#F7941E;}
</style>
<defs>
</defs>
<g id="XMLID_15_">
	<g id="XMLID_30_">
		<path id="XMLID_50_" class="st0" d="M48.7,31.3c0-9.7-6.4-18-15.2-20.7c10.5,1.1,18.7,10,18.7,20.7S43.9,50.9,33.5,52
			C42.3,49.2,48.7,41,48.7,31.3z"/>
		<path id="XMLID_49_" class="st1" d="M36.6,80c-0.1,0-0.2,0-0.3,0h-5.1v-5.9C33.3,74.2,35.2,76.4,36.6,80z"/>
		<path id="XMLID_48_" class="st2" d="M36.4,80.1c0.1,0,0.2,0,0.3,0c2.1,5.2,3.5,13.5,3.5,22.9s-1.4,17.6-3.5,22.8
			c-0.1,0-0.2,0-0.3,0h-5.1V80.1H36.4z"/>
		<path id="XMLID_47_" class="st3" d="M35.4,72.8h-4.1V62.3c1.4,0,2.7-0.1,4.1-0.3V72.8L35.4,72.8z"/>
		<path id="XMLID_46_" class="st4" d="M35.4,62c-1.3,0.2-2.7,0.3-4.1,0.3v-5.9c13.9,0,25.1-11.2,25.1-25.1S45.2,6.2,31.3,6.2V0.3
			c17.1,0,31,13.9,31,31C62.3,47,50.6,60,35.4,62z"/>
		<path id="XMLID_45_" class="st1" d="M36.6,80c-1.5-3.7-3.3-5.9-5.4-5.9v-1.4h4.1h1c2,0,3.6,1.6,3.6,3.6c0,1-0.4,1.9-1.1,2.6
			C38.4,79.6,37.5,80,36.6,80z"/>
		<path id="XMLID_44_" class="st5" d="M33.5,10.5c8.8,2.8,15.2,11,15.2,20.7s-6.4,18-15.2,20.7h0c-0.7,0.1-1.4,0.1-2.2,0.1V10.4
			C32,10.4,32.7,10.5,33.5,10.5L33.5,10.5z"/>
		<path id="XMLID_43_" class="st5" d="M52.1,31.3c0-10.8-8.2-19.6-18.7-20.7h0c-0.7-0.1-1.4-0.1-2.2-0.1V6.2
			c13.9,0,25.1,11.2,25.1,25.1S45.2,56.4,31.3,56.4v-4.3c0.7,0,1.4,0,2.2-0.1h0C43.9,50.9,52.1,42.1,52.1,31.3z"/>
		<path id="XMLID_42_" class="st6" d="M31.3,133h2.2c0,1.2-1,2.2-2.2,2.2V133z"/>
		<path id="XMLID_41_" class="st1" d="M39,131.9c-0.7,0.6-1.6,1.1-2.6,1.1h-2.9h-2.2v-1.4c2,0,3.9-2.2,5.4-5.9
			c1.9,0.1,3.4,1.7,3.4,3.6C40,130.4,39.6,131.3,39,131.9z"/>
		<path id="XMLID_40_" class="st1" d="M36.6,125.7c-1.5,3.7-3.3,5.9-5.4,5.9v-5.9h5.1C36.5,125.7,36.6,125.7,36.6,125.7z"/>
		<path id="XMLID_39_" class="st7" d="M31.3,133v2.2c-1.2,0-2.2-1-2.2-2.2H31.3z"/>
		<path id="XMLID_38_" class="st6" d="M31.3,74.2v5.9h-5.1c-0.1,0-0.2,0-0.3,0C27.4,76.4,29.3,74.2,31.3,74.2z"/>
		<path id="XMLID_37_" class="st8" d="M31.3,52.1v4.3c-13.9,0-25.1-11.2-25.1-25.1S17.4,6.2,31.3,6.2v4.3V52.1z"/>
		<path id="XMLID_36_" class="st9" d="M31.3,0.3v5.9C17.4,6.2,6.2,17.4,6.2,31.3s11.2,25.1,25.1,25.1v5.9c-1.8,0-3.5-0.2-5.2-0.5
			C11.4,59.4,0.3,46.6,0.3,31.3C0.3,14.1,14.2,0.3,31.3,0.3z"/>
		<path id="XMLID_35_" class="st6" d="M26.2,133c-2,0-3.6-1.6-3.6-3.6c0-1,0.4-1.9,1.1-2.6c0.6-0.6,1.4-1,2.3-1
			c1.5,3.7,3.3,5.9,5.4,5.9v1.4H29H26.2z"/>
		<path id="XMLID_34_" class="st4" d="M26.2,72.8c0,0-0.1,0-0.1,0v0V62l0-0.1c1.7,0.3,3.4,0.5,5.2,0.5v10.5H26.2z"/>
		<path id="XMLID_33_" class="st6" d="M26.2,72.8h5.1v1.4c-2,0-3.9,2.2-5.4,5.9c-1.9-0.1-3.4-1.7-3.4-3.6c0-1,0.4-1.9,1.1-2.6
			c0.6-0.6,1.5-1,2.4-1.1C26.1,72.8,26.1,72.8,26.2,72.8z"/>
		<path id="XMLID_32_" class="st6" d="M25.9,125.7c0.1,0,0.2,0,0.3,0h5.1v5.9C29.3,131.6,27.4,129.4,25.9,125.7z"/>
		<path id="XMLID_31_" class="st10" d="M25.9,125.7c-2.1-5.2-3.5-13.5-3.5-22.8s1.4-17.6,3.5-22.9c0.1,0,0.2,0,0.3,0h5.1v45.7h-5.1
			C26.1,125.7,26,125.7,25.9,125.7z"/>
	</g>
	<g id="XMLID_29_">
	</g>
</g>
</svg>
