<!-- Generator: Adobe Illustrator 19.0.0, SVG Export Plug-In  -->
<svg version="1.1"
	 xmlns="http://www.w3.org/2000/svg" xmlns:xlink="http://www.w3.org/1999/xlink" xmlns:a="http://ns.adobe.com/AdobeSVGViewerExtensions/3.0/"
	 x="0px" y="0px" width="278.3px" height="408px" viewBox="0 0 278.3 408" style="enable-background:new 0 0 278.3 408;"
	 xml:space="preserve">
<style type="text/css">
	.st0{fill:#F9E957;}
	.st1{fill:#BDBAB5;}
	.st2{fill:#C9C6C2;}
	.st3{fill:#D5D2CE;}
	.st4{fill:#FDF9F2;}
	.st5{fill:#FBF6B6;}
	.st6{fill:#FBD13C;}
</style>
<defs>
</defs>
<g id="XMLID_92_">
	<g id="XMLID_105_">
		<path id="XMLID_112_" class="st0" d="M251,86.9c-0.4-1.5-19.2-74-111.2-70.5c-92.9,3.5-111.3,88.4-111.3,88.4
			s41.4-37.4,111.3-42.2C208.7,57.8,249.8,86.1,251,86.9z M139.1,0.3C215.8,0.3,278,62.4,278,139.1c0,41.5-18.2,78.8-47.1,104.2
			c-24.5,21.6-56.6,34.7-91.8,34.7c-35.2,0-67.3-13.1-91.8-34.7C18.5,217.9,0.3,180.6,0.3,139.1C0.3,62.4,62.4,0.3,139.1,0.3z"/>
		<path id="XMLID_111_" class="st0" d="M230.9,243.4L230.9,243.4c-35.5,35.3-29.5,64.7-29.5,64.7c0,5.5-4.5,10-10,10l-104.5,8.4
			c-5.5,0-10-4.5-10-10l0-8.4c0,0,6-29.4-29.5-64.7l0,0c24.5,21.6,56.6,34.7,91.8,34.7C174.3,278,206.4,264.9,230.9,243.4z"/>
		<path id="XMLID_110_" class="st1" d="M194.2,331.8v2.7c0,3-2.3,5.5-5.2,5.7l-97.4,8.1c-3.3,0.3-6.2-2.4-6.2-5.7v-2.7
			c0-3,2.3-5.5,5.2-5.7l97.4-8.1C191.3,325.8,194.2,328.4,194.2,331.8z"/>
		<path id="XMLID_109_" class="st2" d="M188.7,350.6v3.7c0,2.7-2,4.9-4.7,5.2l-87.4,8.1c-3,0.3-5.7-2.1-5.7-5.2v-3.7
			c0-2.7,2-4.9,4.7-5.2l87.4-8.1C186,345.2,188.7,347.6,188.7,350.6z"/>
		<path id="XMLID_108_" class="st3" d="M183.1,369.4v4.2c0,2.5-1.9,4.6-4.4,4.9l-76.7,8c-2.9,0.3-5.5-2-5.5-4.9v-4.2
			c0-2.5,1.9-4.7,4.4-4.9l76.7-8C180.6,364.1,183.1,366.4,183.1,369.4z"/>
		<path id="XMLID_107_" class="st4" d="M169.9,386.6c3.1-0.3,5.3,3,3.8,5.7c-4.2,7.5-17,13.8-32.7,15.2c-15.6,1.4-29.4-2.4-34.9-9
			c-2-2.4-0.3-6,2.7-6.3L169.9,386.6z"/>
		<path id="XMLID_106_" class="st5" d="M251,86.9c-1.2-0.8-42.3-29.1-111.2-24.4c-69.9,4.8-111.3,42.2-111.3,42.2
			s18.3-84.9,111.3-88.4C231.8,12.9,250.6,85.4,251,86.9z"/>
	</g>
	<g id="XMLID_104_">
	</g>
</g>
<g id="XMLID_91_">
	<g id="XMLID_144_">
		<path id="XMLID_148_" class="st6" d="M124.6,318.9c-6.5-44.6-13-89.2-19.6-133.8c-0.2-1.2-0.3-2.3-0.5-3.5c0-0.2-0.2-2-0.2-1.2
			c-0.2-1.7-0.5-7-0.8-9.8c-1.2-9.6-3.3-26.1-13.9-30.1c-5.6-2.1-11.9,0.9-15.8,4.8c-4.6,4.6-4.9,10.8-2.2,16.5
			c4.2,8.8,13.9,17.7,22.8,21.9c7.9,3.8,17.4,4.6,26,3.3c6.2-0.9,13.5-2.9,18.5-6.8c3.3-2.5,5.4-6.2,7.5-9.7c4-6.9,7.9-14.9,8-23
			c0.1-9.1-6-14.7-14.5-16.7c-3.1-0.7-4.5,4.1-1.3,4.8c18,4.2,9.1,23.4,2.5,34.2c-2.2,3.6-4.4,6.4-8.3,8.3
			c-5.8,2.8-12.3,4.3-18.8,4.5c-6,0.1-12.8-0.8-18.2-3.8c-7.7-4.3-17.7-12.6-20.4-21.2c-1.9-6.2,3.9-12.6,10.2-12.8
			c4.7-0.1,7.4,4.9,9,8.6c5,12,4.8,26,6.7,38.7c3.5,23.6,6.9,47.3,10.4,70.9c2.8,19,5.6,38.1,8.4,57.1
			C120.2,323.4,125,322.1,124.6,318.9L124.6,318.9z"/>
	</g>
</g>
<g id="XMLID_90_">
	<g id="XMLID_138_">
		<path id="XMLID_142_" class="st6" d="M159.7,317.2c6-39.9,12-79.9,18-119.8c1.9-12.4,2-25.7,6-37.6c1.4-4,3.7-9.8,8.3-10.8
			c5.5-1.1,12.5,4.7,12.2,10.2c-0.3,6-5.8,11.3-9.8,15.1c-3.2,3-6.7,6-10.5,8.2c-4.7,2.8-10.7,3.9-16,4.1c-7,0.3-14.1-1.2-20.6-4
			c-4.4-1.9-6.8-4.9-9.2-8.8c-6.4-10.7-17.3-33.7,1.5-38.1c3.1-0.7,1.8-5.6-1.3-4.8c-17.2,4.1-15.6,21.2-10,34.4
			c2.6,6.1,5.9,13.6,10.9,18.2c7.7,6.9,21.3,9,31.3,8c11.1-1,18.8-5.7,26.8-13c9.5-8.6,18.6-23.3,4-32c-11.8-7.1-19.6,3-22.8,13.6
			c-1.8,5.7-2.7,11.6-3.3,17.5c-0.2,1.9-0.4,3.8-0.5,5.7c0,0.7-0.1,2.2,0,1.2c-2.1,20.6-6.2,41.2-9.3,61.7
			c-3.5,23.3-7,46.5-10.5,69.8C154.4,319,159.2,320.4,159.7,317.2L159.7,317.2z"/>
	</g>
</g>
<g id="XMLID_36_">
	<g id="XMLID_76_">
		<path id="XMLID_87_" class="st0" d="M251,86.9c-0.4-1.5-19.2-74-111.2-70.5c-92.9,3.5-111.3,88.4-111.3,88.4s41.4-37.4,111.3-42.2
			C208.7,57.8,249.8,86.1,251,86.9z M139.1,0.3C215.8,0.3,278,62.4,278,139.1c0,41.5-18.2,78.8-47.1,104.2
			c-24.5,21.6-56.6,34.7-91.8,34.7c-35.2,0-67.3-13.1-91.8-34.7C18.5,217.9,0.3,180.6,0.3,139.1C0.3,62.4,62.4,0.3,139.1,0.3z"/>
		<path id="XMLID_86_" class="st0" d="M230.9,243.4L230.9,243.4c-35.5,35.3-29.5,64.7-29.5,64.7c0,5.5-4.5,10-10,10l-104.5,8.4
			c-5.5,0-10-4.5-10-10l0-8.4c0,0,6-29.4-29.5-64.7l0,0c24.5,21.6,56.6,34.7,91.8,34.7C174.3,278,206.4,264.9,230.9,243.4z"/>
		<path id="XMLID_85_" class="st1" d="M194.2,331.8v2.7c0,3-2.3,5.5-5.2,5.7l-97.4,8.1c-3.3,0.3-6.2-2.4-6.2-5.7v-2.7
			c0-3,2.3-5.5,5.2-5.7l97.4-8.1C191.3,325.8,194.2,328.4,194.2,331.8z"/>
		<path id="XMLID_84_" class="st2" d="M188.7,350.6v3.7c0,2.7-2,4.9-4.7,5.2l-87.4,8.1c-3,0.3-5.7-2.1-5.7-5.2v-3.7
			c0-2.7,2-4.9,4.7-5.2l87.4-8.1C186,345.2,188.7,347.6,188.7,350.6z"/>
		<path id="XMLID_83_" class="st3" d="M183.1,369.4v4.2c0,2.5-1.9,4.6-4.4,4.9l-76.7,8c-2.9,0.3-5.5-2-5.5-4.9v-4.2
			c0-2.5,1.9-4.7,4.4-4.9l76.7-8C180.6,364.1,183.1,366.4,183.1,369.4z"/>
		<path id="XMLID_82_" class="st4" d="M169.9,386.6c3.1-0.3,5.3,3,3.8,5.7c-4.2,7.5-17,13.8-32.7,15.2c-15.6,1.4-29.4-2.4-34.9-9
			c-2-2.4-0.3-6,2.7-6.3L169.9,386.6z"/>
		<path id="XMLID_81_" class="st5" d="M251,86.9c-1.2-0.8-42.3-29.1-111.2-24.4c-69.9,4.8-111.3,42.2-111.3,42.2
			s18.3-84.9,111.3-88.4C231.8,12.9,250.6,85.4,251,86.9z"/>
	</g>
	<g id="XMLID_65_">
	</g>
</g>
<g id="XMLID_35_">
	<g id="XMLID_132_">
		<path id="XMLID_136_" class="st6" d="M124.6,318.9c-6.5-44.6-13-89.2-19.6-133.8c-0.2-1.2-0.3-2.3-0.5-3.5c0-0.2-0.2-2-0.2-1.2
			c-0.2-1.7-0.5-7-0.8-9.8c-1.2-9.6-3.3-26.1-13.9-30.1c-5.6-2.1-11.9,0.9-15.8,4.8c-4.6,4.6-4.9,10.8-2.2,16.5
			c4.2,8.8,13.9,17.7,22.8,21.9c7.9,3.8,17.4,4.6,26,3.3c6.2-0.9,13.5-2.9,18.5-6.8c3.3-2.5,5.4-6.2,7.5-9.7c4-6.9,7.9-14.9,8-23
			c0.1-9.1-6-14.7-14.5-16.7c-3.1-0.7-4.5,4.1-1.3,4.8c18,4.2,9.1,23.4,2.5,34.2c-2.2,3.6-4.4,6.4-8.3,8.3
			c-5.8,2.8-12.3,4.3-18.8,4.5c-6,0.1-12.8-0.8-18.2-3.8c-7.7-4.3-17.7-12.6-20.4-21.2c-1.9-6.2,3.9-12.6,10.2-12.8
			c4.7-0.1,7.4,4.9,9,8.6c5,12,4.8,26,6.7,38.7c3.5,23.6,6.9,47.3,10.4,70.9c2.8,19,5.6,38.1,8.4,57.1
			C120.2,323.4,125,322.1,124.6,318.9L124.6,318.9z"/>
	</g>
</g>
<g id="XMLID_34_">
	<g id="XMLID_126_">
		<path id="XMLID_130_" class="st6" d="M159.7,317.2c6-39.9,12-79.9,18-119.8c1.9-12.4,2-25.7,6-37.6c1.4-4,3.7-9.8,8.3-10.8
			c5.5-1.1,12.5,4.7,12.2,10.2c-0.3,6-5.8,11.3-9.8,15.1c-3.2,3-6.7,6-10.5,8.2c-4.7,2.8-10.7,3.9-16,4.1c-7,0.3-14.1-1.2-20.6-4
			c-4.4-1.9-6.8-4.9-9.2-8.8c-6.4-10.7-17.3-33.7,1.5-38.1c3.1-0.7,1.8-5.6-1.3-4.8c-17.2,4.1-15.6,21.2-10,34.4
			c2.6,6.1,5.9,13.6,10.9,18.2c7.7,6.9,21.3,9,31.3,8c11.1-1,18.8-5.7,26.8-13c9.5-8.6,18.6-23.3,4-32c-11.8-7.1-19.6,3-22.8,13.6
			c-1.8,5.7-2.7,11.6-3.3,17.5c-0.2,1.9-0.4,3.8-0.5,5.7c0,0.7-0.1,2.2,0,1.2c-2.1,20.6-6.2,41.2-9.3,61.7
			c-3.5,23.3-7,46.5-10.5,69.8C154.4,319,159.2,320.4,159.7,317.2L159.7,317.2z"/>
	</g>
</g>
</svg>
