<?xml version="1.0" encoding="utf-8"?>
<!-- Generator: Adobe Illustrator 19.0.0, SVG Export Plug-In . SVG Version: 6.00 Build 0)  -->
<svg version="1.1" id="paper1" xmlns="http://www.w3.org/2000/svg" xmlns:xlink="http://www.w3.org/1999/xlink" x="0px" y="0px"
	 viewBox="0 0 566.9 566.9" style="enable-background:new 0 0 566.9 566.9;" xml:space="preserve">
<style type="text/css">
	.st0{fill:#904731;}
	.st1{fill:#6D3825;}
	.st2{fill:#647783;}
	.st3{fill:#4B606F;}
	.st4{fill:#354F5C;}
	.st5{fill:#E75426;}
	.st6{fill:#FFFFFF;}
	.st7{fill:#0F1F35;}
	.st8{fill:#D2D2D2;}
	.st9{fill:#C0D9E7;}
</style>
<g id="XMLID_14_">
	<g id="XMLID_17_">
		<path id="XMLID_35_" class="st0" d="M140.2,287.8c3.2,19.1,9.5,63.5,9.5,63.5s3,19,26.8,21c0.1,0,0.1,0,0.2,0L159.3,410
			c0,0-4.2,7,1.3,9L266,524.4C140.2,516,40.8,411.4,40.8,283.5C40.8,150.1,148.9,42,282.3,42s241.5,108.1,241.5,241.5
			c0,10.2-0.6,20.3-1.9,30.2L363.8,154.9h-0.1l-162.5,0.2l-2.8,55.2h-19.7c0,0-13.5,1-20.8,13.5c-4.4,7.5-9.7,18.1-13.3,25.3h0
			c-2.3,4.7-3.9,8-3.9,8s-2.3,6.2-2.2,16c0,3.1,0.3,6.7,1,10.5C139.7,284.7,140,286.1,140.2,287.8z"/>
		<path id="XMLID_34_" class="st1" d="M422.1,249l-11.9-23c0,0-6.7-15.7-23.5-15.8c-3.7,0-11.2,0-20.5,0l-2.6-55.3h0.1l158.1,158.8
			C507,432.8,405.4,525,282.3,525c-5.5,0-10.9-0.2-16.3-0.5L160.6,419c0.8,0.3,1.8,0.5,3.1,0.6c9.9,0.5,234-0.1,234-0.1
			s8.6,0.1,5-8.5c-2-4.7-10.6-23-17.9-38.7c3.4,0.4,26.4,2.1,32.8-21.3l9.3-62.8c0,0,0-0.2,0.1-0.5c0.4-1.7,1.7-7.5,1.7-14.8
			c0-5-0.6-10.6-2.5-16c-0.9-2.7-2.2-5.3-3.8-7.8L422.1,249z"/>
		<path id="XMLID_33_" class="st2" d="M426.1,257c1.9,5.4,2.5,11,2.5,16h-290h0c-0.1-9.8,2.2-16,2.2-16H426.1z"/>
		<path id="XMLID_32_" class="st3" d="M138.5,273h290c0,7.2-1.3,13.1-1.7,14.8H140.2c-0.3-1.6-0.5-3.1-0.7-4.3
			C138.8,279.7,138.6,276.1,138.5,273L138.5,273z"/>
		<path id="XMLID_31_" class="st4" d="M140.2,287.8h286.7c-0.1,0.3-0.1,0.5-0.1,0.5l-9.3,62.8c-6.5,23.4-29.4,21.7-32.8,21.3
			c-1.2-2.5-2.3-4.9-3.4-7.1h20.2v-32H163v32h17l-3.3,7.1c-0.1,0-0.1,0-0.2,0c-23.8-2-26.8-21-26.8-21S143.4,306.9,140.2,287.8z"/>
		<path id="XMLID_30_" class="st3" d="M426.1,257H140.8c0,0,1.6-3.3,3.9-8h0h277.4l0.1,0.3C423.9,251.7,425.1,254.3,426.1,257z"/>
		<path id="XMLID_27_" class="st4" d="M410.3,226l11.9,23H144.7c3.6-7.2,8.9-17.7,13.3-25.3c7.3-12.5,20.8-13.5,20.8-13.5h19.7h85
			c0,0,31.2,0,59.8,0h23c9.3,0,16.8,0,20.5,0C403.5,210.3,410.3,226,410.3,226z M413.2,239.8c0-2.5-3.8-4.4-8.4-4.4
			c-4.6,0-8.4,2-8.4,4.4c0,2.5,3.8,4.4,8.4,4.4C409.5,244.2,413.2,242.2,413.2,239.8z"/>
		<path id="XMLID_26_" class="st5" d="M404.8,235.3c4.6,0,8.4,2,8.4,4.4c0,2.5-3.8,4.4-8.4,4.4c-4.6,0-8.4-2-8.4-4.4
			C396.4,237.3,400.2,235.3,404.8,235.3z"/>
		<path id="XMLID_25_" class="st6" d="M402.6,411c3.6,8.6-5,8.5-5,8.5s-224.1,0.6-234,0.1c-1.3-0.1-2.3-0.3-3.1-0.6
			c-5.5-2.1-1.3-9-1.3-9l17.5-37.7c24.6,2,207.5,0,207.5,0s0.1,0,0.4,0C392.1,388,400.6,406.3,402.6,411z"/>
		<path id="XMLID_24_" class="st7" d="M401.5,333.2v32h-20.2c-1.3-2.8-2.5-5.4-3.6-7.7c-2.7-5.7-4.5-9.4-4.5-9.4s-1-4.6-6.6-3.5
			l-173.9-0.2c0,0-3.3,0.2-4.9,3.7l-4.3,9.2l-3.6,7.9h-17v-32H401.5z"/>
		<path id="XMLID_23_" class="st6" d="M384.7,372.3c-0.3,0-0.4,0-0.4,0s-182.9,2-207.5,0l3.3-7.1h201.3
			C382.4,367.4,383.5,369.8,384.7,372.3z"/>
		<path id="XMLID_22_" class="st6" d="M381.3,365.2H180l3.6-7.9l194,0.2l0,0C378.8,359.8,380,362.4,381.3,365.2z"/>
		<path id="XMLID_21_" class="st8" d="M377.7,357.5L377.7,357.5l-194.1-0.2l4.3-9.2c1.6-3.5,4.9-3.7,4.9-3.7l173.9,0.2
			c5.6-1.1,6.6,3.5,6.6,3.5S375,351.9,377.7,357.5z"/>
		<polygon id="XMLID_20_" class="st6" points="363.7,154.9 366.3,210.2 343.2,210.2 198.4,210.3 201.2,155.1 		"/>
		<path id="XMLID_19_" class="st9" d="M343.2,210.2c-28.5,0-59.8,0-59.8,0h-85L343.2,210.2z"/>
	</g>
	<g id="XMLID_18_">
	</g>
</g>
</svg>
