<?xml version="1.0" encoding="utf-8"?>
<!-- Generator: Adobe Illustrator 19.0.0, SVG Export Plug-In . SVG Version: 6.00 Build 0)  -->
<svg version="1.1" xmlns="http://www.w3.org/2000/svg" xmlns:xlink="http://www.w3.org/1999/xlink" x="0px" y="0px"
	 viewBox="0 0 354.3 354.3" style="enable-background:new 0 0 354.3 354.3;" xml:space="preserve">
<style type="text/css">
	.st0{display:none;}
	.st1{display:inline;}
	.st2{fill:#E75426;}
	.st3{fill:#C0D9E7;}
	.st4{fill:#4B606F;}
	.st5{fill:#354F5C;}
	.st6{fill:#FFFFFF;}
	.st7{fill:#D2D2D2;}
	.st8{fill:#0F1F35;}
	.st9{fill:#6D3825;}
	.st10{fill:#904731;}
	.st11{fill:#647783;}
	.st12{fill:#E6E7E8;}
	.st13{fill:#566672;}
	.st14{fill:#77818C;}
</style>
<g id="imp">
	<g id="XMLID_2_">
		<g id="XMLID_17_">
			<path id="XMLID_33_" class="st7" d="M271.3,255L271.3,255l-194.1-0.2l4.3-9.2c1.6-3.5,4.9-3.7,4.9-3.7l173.9,0.2
				c5.6-1.1,6.6,3.5,6.6,3.5S268.6,249.3,271.3,255z"/>
			<path id="XMLID_32_" class="st12" d="M274.9,262.6H73.6l3.6-7.9l194,0.2l0,0C272.4,257.2,273.6,259.8,274.9,262.6z"/>
			<polygon id="XMLID_31_" class="st12" points="257.3,52.4 259.9,107.7 236.9,107.7 92,107.7 94.8,52.5 			"/>
			<path id="XMLID_30_" class="st4" d="M319.7,154.4H34.4c0,0,1.6-3.3,3.9-8h0h277.4l0.1,0.3C317.5,149.2,318.8,151.8,319.7,154.4z"
				/>
			<path id="XMLID_29_" class="st12" d="M296.2,308.4c3.6,8.6-5,8.5-5,8.5s-224.1,0.6-234,0.1c-1.3-0.1-2.3-0.3-3.1-0.6
				c-5.5-2.1-1.3-9.1-1.3-9.1l17.5-37.7c24.6,2,207.5,0,207.5,0s0.1,0,0.4,0.1C285.7,285.4,294.3,303.7,296.2,308.4z"/>
			<path id="XMLID_26_" class="st5" d="M303.9,123.4l11.9,23H38.3c3.6-7.2,8.9-17.7,13.3-25.3c7.3-12.5,20.8-13.5,20.8-13.5H92h85
				c0,0,31.2,0,59.8,0h23c9.3,0,16.8,0,20.5,0C297.2,107.7,303.9,123.4,303.9,123.4z M306.8,137.2c0-2.5-3.8-4.4-8.4-4.4
				c-4.6,0-8.4,2-8.4,4.4c0,2.5,3.8,4.4,8.4,4.4C303.1,141.7,306.8,139.7,306.8,137.2z"/>
			<path id="XMLID_25_" class="st11" d="M322.2,170.4h-290h0c-0.1-9.8,2.2-16,2.2-16h285.3C321.6,159.8,322.2,165.5,322.2,170.4z"/>
			<path id="XMLID_24_" class="st2" d="M298.4,132.8c4.6,0,8.4,2,8.4,4.4c0,2.5-3.8,4.4-8.4,4.4c-4.6,0-8.4-2-8.4-4.4
				C290,134.8,293.8,132.8,298.4,132.8z"/>
			<path id="XMLID_23_" class="st4" d="M32.2,170.4h290c0,7.2-1.3,13.1-1.7,14.8H33.8c-0.3-1.6-0.5-3.1-0.7-4.3
				C32.4,177.1,32.2,173.6,32.2,170.4L32.2,170.4z"/>
			<path id="XMLID_22_" class="st3" d="M236.9,107.7c-28.6,0-59.8,0-59.8,0H92L236.9,107.7z"/>
			<path id="XMLID_21_" class="st5" d="M33.8,185.2h286.6c-0.1,0.3-0.1,0.5-0.1,0.5l-9.3,62.8c-6.5,23.3-29.4,21.7-32.8,21.3
				c-1.2-2.5-2.3-4.9-3.4-7.1h20.2v-32H56.6v32h17l-3.3,7.1c-0.1,0-0.1,0-0.2,0c-23.8-2-26.8-21-26.8-21S37,204.3,33.8,185.2z"/>
			<path id="XMLID_20_" class="st8" d="M295.1,230.6v32h-20.2c-1.3-2.8-2.5-5.4-3.6-7.7c-2.7-5.7-4.5-9.4-4.5-9.4s-1-4.6-6.6-3.5
				l-173.9-0.2c0,0-3.3,0.2-4.9,3.7l-4.3,9.2l-3.6,7.9h-17v-32H295.1z"/>
			<path id="XMLID_19_" class="st12" d="M278.3,269.7c-0.3,0-0.4-0.1-0.4-0.1s-182.9,2-207.5,0l3.3-7.1h201.3
				C276,264.9,277.1,267.3,278.3,269.7z"/>
		</g>
		<g id="XMLID_18_">
		</g>
	</g>
</g>
<g id="cop" class="st0">
	<g id="XMLID_53_" class="st1">
		<g id="XMLID_59_">
			<path id="XMLID_80_" class="st13" d="M271.5,185.5l69.9-31.4c0,0,3.9-0.6,6.6,4.3c2.7,4.8,0.5,7.2,0.5,7.2l-77.2,50.6l0.2,0.2
				v16.1H147.5v-55.9h111.4v-5.4v-5.9h12.6V185.5z"/>
			<path id="XMLID_79_" class="st13" d="M270.8,64v90.1h-11.9H147.5v-72l0-18c0-12.3,9.9-22.2,22.2-22.2h78.8
				C260.9,41.8,270.8,51.8,270.8,64z"/>
			<polygon id="XMLID_78_" class="st13" points="270.8,294.8 270.8,310.9 258.9,310.9 147.5,310.9 147.5,255 258.9,255 258.9,249.6
				258.9,243.7 270.8,243.7 270.8,264.2 			"/>
			<polygon id="XMLID_77_" class="st5" points="258.9,319.4 258.9,322.1 147.5,322.1 147.5,310.9 258.9,310.9 258.9,314.3 			"/>
			<path id="XMLID_76_" class="st13" d="M258.9,249.6v5.4H147.5v0h23.2c5.8,0,10.5-5.4,10.5-11.2h77.7V249.6z"/>
			<polygon id="XMLID_75_" class="st5" points="258.9,239.3 258.9,243.7 181.2,243.7 147.5,243.7 147.5,232.5 258.9,232.5 			"/>
			<path id="XMLID_74_" class="st13" d="M258.9,171.2v5.4H147.5v0h23.2c5.8,0,10.5-5.4,10.5-11.2h77.7V171.2z"/>
			<polygon id="XMLID_73_" class="st5" points="258.9,161 258.9,165.4 181.2,165.4 147.5,165.4 147.5,154.1 258.9,154.1 			"/>
			<path id="XMLID_72_" class="st5" d="M147.5,165.4h33.6c0,5.8-4.7,11.2-10.5,11.2h-23.2V165.4z"/>
			<path id="XMLID_71_" class="st5" d="M147.5,243.7h33.6c0,5.8-4.7,11.2-10.5,11.2h-23.2V243.7z"/>
			<rect id="XMLID_70_" x="36.1" y="310.9" class="st13" width="111.4" height="11.2"/>
			<polygon id="XMLID_69_" class="st14" points="147.5,255 147.5,310.9 36.1,310.9 24.2,310.9 24.2,243.7 36.1,243.7 36.1,255
				"/>
			<path id="XMLID_68_" class="st14" d="M147.5,255L147.5,255l-111.4,0v-11.2h77.7c0,5.8,4.7,11.2,10.5,11.2H147.5z"/>
			<path id="XMLID_67_" class="st13" d="M147.5,243.7V255h-23.2c-5.8,0-10.5-5.4-10.5-11.2H147.5z"/>
			<polygon id="XMLID_66_" class="st13" points="147.5,232.5 147.5,243.7 113.9,243.7 36.1,243.7 36.1,232.5 			"/>
			<polygon id="XMLID_65_" class="st14" points="147.5,176.6 147.5,232.5 23.6,232.5 23.6,165.4 36.1,165.4 36.1,176.6 			"/>
			<path id="XMLID_64_" class="st14" d="M147.5,176.6L147.5,176.6l-111.4,0v-11.2h77.7c0,5.8,4.7,11.2,10.5,11.2H147.5z"/>
			<path id="XMLID_63_" class="st13" d="M147.5,165.4v11.2h-23.2c-5.8,0-10.5-5.4-10.5-11.2H147.5z"/>
			<polygon id="XMLID_62_" class="st13" points="147.5,154.1 147.5,165.4 113.9,165.4 36.1,165.4 36.1,154.1 			"/>
			<path id="XMLID_61_" class="st14" d="M147.5,82.1v72H36.1H24.4h-0.2v-27.9C24.2,114,42.1,98,54.3,98l75.4-0.1
				c0,0-92-52-93.1-52.9c-1.2-0.9-1.1-3.6,0-6.2c1.1-2.6,7.7-6.7,7.7-6.7c7.6-3,13.8,0,13.8,0L147.5,82.1z"/>
		</g>
		<g id="XMLID_60_">
		</g>
	</g>
	<g id="XMLID_82_" class="st1">
		<g id="XMLID_85_">
			<path id="XMLID_87_" class="st12" d="M249.9,82.2v10.3c0,9.6-7.8,17.3-17.3,17.3h-41.4c-9.6,0-17.3-7.8-17.3-17.3V82.2
				c0-9.6,7.8-17.3,17.3-17.3h41.4C242.1,64.8,249.9,72.6,249.9,82.2z"/>
		</g>
		<g id="XMLID_86_">
		</g>
	</g>
</g>
<g id="mfp" class="st0">
	<g id="XMLID_111_" class="st1">
		<g id="XMLID_103_">
			<path id="XMLID_194_" class="st13" d="M313.4,49.6c1.9,3.4,0.3,5.1,0.3,5.1l-54.7,35.8V68.9l49.7-22.3
				C308.7,46.6,311.5,46.1,313.4,49.6z"/>
			<path id="XMLID_182_" class="st13" d="M259.1,90.5v0.6c0,4.4-3.6,8-8,8h-79.8V84.9h79.4v-4.8h-79.4V24.4v0l79.8-0.1
				c4.4,0,8,3.6,8,8v36.6V90.5z M248,57.4c0-3.5-2.8-6.3-6.3-6.3c-3.5,0-6.3,2.8-6.3,6.3c0,3.5,2.8,6.3,6.3,6.3
				C245.2,63.8,248,60.9,248,57.4z M225.8,62.4v-5h-7.4v5H225.8z M225.8,53.7v-5h-7.4v5H225.8z M225.8,45.5v-5h-7.4v5H225.8z
				 M215.7,62.4v-5h-7.4v5H215.7z M215.7,53.7v-5h-7.4v5H215.7z M215.7,45.5v-5h-7.4v5H215.7z M205.6,62.4v-5h-7.4v5H205.6z
				 M205.6,53.7v-5h-7.4v5H205.6z M205.6,45.5v-5h-7.4v5H205.6z"/>
			<polygon id="XMLID_181_" class="st13" points="258.7,143.2 258.7,154.5 171.3,154.5 171.3,115.1 249.9,115.1 249.9,111.3
				249.9,107.2 258.7,107.2 258.7,121.6 			"/>
			<polygon id="XMLID_180_" class="st13" points="258.2,309.1 258.2,320.4 249.9,320.4 171.3,320.4 171.3,281 249.9,281
				249.9,277.2 249.9,273 258.2,273 258.2,287.5 			"/>
			<polygon id="XMLID_179_" class="st13" points="258.2,253.8 258.2,265.1 249.9,265.1 171.3,265.1 171.3,225.7 249.9,225.7
				249.9,221.9 249.9,217.8 258.2,217.8 258.2,232.2 			"/>
			<polygon id="XMLID_178_" class="st13" points="258.2,198.5 258.2,209.8 249.9,209.8 249.9,209.8 171.3,209.8 171.3,170.4
				249.9,170.4 249.9,166.6 249.9,162.5 258.2,162.5 258.2,176.9 			"/>
			<rect id="XMLID_177_" x="171.3" y="80.1" class="st2" width="79.4" height="4.8"/>
			<polygon id="XMLID_176_" class="st5" points="249.9,326.4 249.9,328.3 171.3,328.3 171.3,320.4 249.9,320.4 249.9,322.8 			"/>
			<polygon id="XMLID_175_" class="st5" points="249.9,269.9 249.9,273 195,273 171.3,273 171.3,265.1 249.9,265.1 			"/>
			<polygon id="XMLID_174_" class="st5" points="249.9,215.9 249.9,217.8 195,217.8 171.3,217.8 171.3,209.8 249.9,209.8
				249.9,212.2 			"/>
			<polygon id="XMLID_173_" class="st5" points="249.9,159.4 249.9,162.5 195,162.5 171.3,162.5 171.3,154.5 249.9,154.5 			"/>
			<polygon id="XMLID_172_" class="st5" points="249.9,104 249.9,107.2 195,107.2 171.3,107.2 171.3,99.2 249.9,99.2 			"/>
			<path id="XMLID_171_" class="st2" d="M241.7,51.1c3.5,0,6.3,2.8,6.3,6.3c0,3.5-2.8,6.3-6.3,6.3c-3.5,0-6.3-2.8-6.3-6.3
				C235.4,53.9,238.2,51.1,241.7,51.1z"/>
			<rect id="XMLID_170_" x="218.4" y="57.4" class="st12" width="7.4" height="5"/>
			<rect id="XMLID_169_" x="218.4" y="48.7" class="st12" width="7.4" height="5"/>
			<rect id="XMLID_168_" x="218.4" y="40.6" class="st12" width="7.4" height="5"/>
			<rect id="XMLID_167_" x="208.3" y="57.4" class="st12" width="7.4" height="5"/>
			<rect id="XMLID_166_" x="208.3" y="48.7" class="st12" width="7.4" height="5"/>
			<rect id="XMLID_165_" x="208.3" y="40.6" class="st12" width="7.4" height="5"/>
			<rect id="XMLID_164_" x="198.3" y="57.4" class="st12" width="7.4" height="5"/>
			<rect id="XMLID_163_" x="198.3" y="48.7" class="st12" width="7.4" height="5"/>
			<rect id="XMLID_162_" x="198.3" y="40.6" class="st12" width="7.4" height="5"/>
			<path id="XMLID_161_" class="st5" d="M171.3,217.8H195c0,4.1-3.3,7.9-7.4,7.9h-16.4V217.8z"/>
			<path id="XMLID_160_" class="st5" d="M171.3,273H195c0,4.1-3.3,7.9-7.4,7.9h-16.4V273z"/>
			<path id="XMLID_159_" class="st5" d="M171.3,107.2H195c0,4.1-3.3,7.9-7.4,7.9h-16.4V107.2z"/>
			<path id="XMLID_158_" class="st5" d="M171.3,162.5H195c0,4.1-3.3,7.9-7.4,7.9h-16.4V162.5z"/>
			<path id="XMLID_157_" class="st13" d="M187.6,281c4.1,0,7.4-3.8,7.4-7.9h54.9v4.1v3.8h-78.6v0H187.6z"/>
			<path id="XMLID_156_" class="st13" d="M187.6,225.7c4.1,0,7.4-3.8,7.4-7.9h54.9h0v4.1v3.8h-78.6v0H187.6z"/>
			<path id="XMLID_155_" class="st13" d="M249.9,170.4h-78.6v0h16.4c4.1,0,7.4-3.8,7.4-7.9h54.9v4.1V170.4z"/>
			<path id="XMLID_154_" class="st13" d="M249.9,115.1h-78.6v0h16.4c4.1,0,7.4-3.8,7.4-7.9h54.9v4.1V115.1z"/>
			<path id="XMLID_150_" class="st14" d="M171.3,80.1v4.8v14.3H91.6c-4.4,0-8-3.6-8-8l-0.2-72.8c0-4.4,3.6-8,8-8L212,5.1v4.4
				L105.7,24.4l65.5,0v0V80.1z M171.3,84.9v-4.8H94.2v4.8H171.3z M141.1,36.6h-35.9c-4.1,0-7.5,3.4-7.5,7.5V61
				c0,4.1,3.4,7.5,7.5,7.5h35.9c4.1,0,7.5-3.4,7.5-7.5V44.1C148.6,40,145.3,36.6,141.1,36.6z"/>
			<polygon id="XMLID_149_" class="st13" points="171.3,99.2 171.3,107.2 147.5,107.2 92.6,107.2 92.6,99.2 			"/>
			<path id="XMLID_148_" class="st13" d="M171.3,107.2v7.9h-16.4c-4.1,0-7.4-3.8-7.4-7.9H171.3z"/>
			<polygon id="XMLID_147_" class="st14" points="171.3,115.1 171.3,154.5 83.8,154.5 83.8,145.5 83.8,123.9 83.8,107.2 92.6,107.2
				92.6,115.1 			"/>
			<polygon id="XMLID_138_" class="st13" points="171.3,154.5 171.3,162.5 147.5,162.5 92.6,162.5 92.6,154.5 			"/>
			<path id="XMLID_137_" class="st13" d="M171.3,162.5v7.9h-16.4c-4.1,0-7.4-3.8-7.4-7.9H171.3z"/>
			<polygon id="XMLID_136_" class="st14" points="171.3,170.4 171.3,209.8 92.7,209.8 92.6,209.8 84.3,209.8 84.3,162.5 92.6,162.5
				92.6,170.4 			"/>
			<polygon id="XMLID_135_" class="st13" points="171.3,209.8 171.3,217.8 147.5,217.8 92.7,217.8 92.7,209.8 			"/>
			<path id="XMLID_134_" class="st13" d="M171.3,217.8v7.9h-16.4c-4.1,0-7.4-3.8-7.4-7.9H171.3z"/>
			<polygon id="XMLID_133_" class="st14" points="171.3,225.7 171.3,265.1 92.7,265.1 84.3,265.1 84.3,217.8 92.6,217.8 92.7,217.8
				92.7,225.7 			"/>
			<polygon id="XMLID_132_" class="st13" points="171.3,265.1 171.3,273 147.5,273 92.7,273 92.7,265.1 			"/>
			<path id="XMLID_131_" class="st13" d="M171.3,273v7.9h-16.4c-4.1,0-7.4-3.8-7.4-7.9H171.3z"/>
			<polygon id="XMLID_130_" class="st14" points="171.3,281 171.3,320.4 92.7,320.4 84.3,320.4 84.3,273 92.7,273 92.7,281 			"/>
			<rect id="XMLID_129_" x="92.7" y="320.4" class="st13" width="78.6" height="7.9"/>
			<rect id="XMLID_128_" x="94.2" y="80.1" class="st2" width="77.1" height="4.8"/>
			<path id="XMLID_127_" class="st14" d="M154.9,281h16.4v0H92.7V273h54.9C147.5,277.1,150.8,281,154.9,281z"/>
			<path id="XMLID_125_" class="st14" d="M171.3,225.7H92.7v-7.9h54.9c0,4.1,3.3,7.9,7.4,7.9L171.3,225.7L171.3,225.7z"/>
			<path id="XMLID_124_" class="st14" d="M154.9,170.4h16.4v0H92.6v-7.9h54.9C147.5,166.5,150.8,170.4,154.9,170.4z"/>
			<path id="XMLID_123_" class="st14" d="M171.3,115.1H92.6v-7.9h54.9c0,4.1,3.3,7.9,7.4,7.9L171.3,115.1L171.3,115.1z"/>
			<path id="XMLID_122_" class="st12" d="M105.3,68.5c-4.1,0-7.5-3.4-7.5-7.5V44.1c0-4.1,3.4-7.5,7.5-7.5h35.9
				c4.1,0,7.5,3.4,7.5,7.5V61c0,4.1-3.4,7.5-7.5,7.5H105.3z"/>
			<rect id="XMLID_110_" x="92.6" y="209.8" class="st13" width="0" height="7.9"/>
			<path id="XMLID_107_" class="st14" d="M83.8,123.9v21.6l-54.7-35.8c0,0-1.5-1.7,0.3-5.1c1.9-3.5,4.7-3,4.7-3L83.8,123.9z"/>
		</g>
		<g id="XMLID_105_">
		</g>
	</g>
</g>
</svg>
